<?xml version="1.0" encoding="utf-8"?>
<!-- Generator: Adobe Illustrator 20.0.0, SVG Export Plug-In . SVG Version: 6.00 Build 0)  -->
<svg version="1.1" id="Laag_1" xmlns="http://www.w3.org/2000/svg" xmlns:xlink="http://www.w3.org/1999/xlink" x="0px" y="0px"
	 viewBox="0 0 888.7 223.4" style="enable-background:new 0 0 888.7 223.4;" xml:space="preserve">
<style type="text/css">
	.st0{fill:#BFA77E;}
	.st1{fill:#232124;}
	.st2{fill:#B9BBBC;}
	.st3{fill:#35363B;}
	.st4{fill:none;stroke:#FFFFFF;stroke-width:0.461;stroke-miterlimit:10;}
	.st5{fill:#999999;}
	.st6{fill:none;stroke:#1D1D1B;stroke-width:0.922;stroke-miterlimit:10;}
	.st7{fill:#E0DEDF;}
	.st8{fill:#A6A1A1;}
	.st9{fill:#AE9262;}
	.st10{fill:#BE9C6D;}
	.st11{fill:#C1BFC3;}
	.st12{fill:#403A3A;}
	.st13{fill:none;stroke:#FFFFFF;stroke-width:0.6147;stroke-miterlimit:10;}
	.st14{fill:#32383E;}
	.st15{fill:#403A3A;stroke:#FFFFFF;stroke-width:0.461;stroke-miterlimit:10;}
	.st16{fill:#8A847F;}
	.st17{fill:url(#SVGID_1_);}
	.st18{fill:#B8B299;}
	.st19{fill:#524E42;}
	.st20{fill:#313231;}
	.st21{fill:#A9A282;}
	.st22{fill:#B6D3D6;}
	.st23{fill:#9AA5A8;}
	.st24{fill:#B1BFBD;}
	.st25{fill:none;stroke:#2C2F45;stroke-width:0.7543;stroke-miterlimit:10;}
	.st26{fill:none;stroke:#2C2F45;stroke-width:0.3772;stroke-miterlimit:10;}
	.st27{fill:none;stroke:#2C2F45;stroke-width:0.2829;stroke-miterlimit:10;}
	.st28{fill:none;stroke:#2C2F45;stroke-width:0.1886;stroke-miterlimit:10;}
	.st29{fill:none;stroke:#2C2F45;stroke-width:9.429058e-02;stroke-miterlimit:10;}
	.st30{fill:#5A5747;}
	.st31{fill:#2D2F2F;}
	.st32{fill:#38362C;}
	.st33{fill:#4D4C35;}
	.st34{fill:#140F15;}
	.st35{fill:#322E36;}
	.st36{fill:#43433B;}
	.st37{fill:#788783;}
	.st38{fill:#8F9B98;}
	.st39{fill:#70807E;}
	.st40{fill:#E1E1D8;}
	.st41{fill:#717C78;}
	.st42{fill:#DBDCCD;}
	.st43{fill:#ABB1AF;}
	.st44{fill:#939F99;}
	.st45{fill:#44493D;}
	.st46{fill:#A59F83;}
	.st47{fill:#3C3D35;}
	.st48{fill:#ADA38B;}
	.st49{fill:#788585;}
	.st50{fill:#505652;}
	.st51{fill:#1F2734;}
	.st52{fill:#414E52;}
	.st53{fill:#D7DBCB;}
	.st54{fill:#656F6E;}
	.st55{fill:#4C5147;}
	.st56{fill:#1C2334;}
	.st57{fill:#AF8C6C;}
	.st58{fill:#425055;}
	.st59{fill:none;stroke:#3E4B4C;stroke-width:1.8858;stroke-miterlimit:10;}
	.st60{fill:url(#SVGID_2_);}
	.st61{fill:#373C47;}
	.st62{fill:#5D6B70;}
	.st63{fill:#20252A;}
	.st64{fill:#444A38;}
	.st65{fill:#48534A;}
	.st66{fill:#474E42;}
	.st67{fill:none;stroke:#222633;stroke-width:0.7543;stroke-miterlimit:10;}
	.st68{fill:none;stroke:#222633;stroke-width:0.3772;stroke-miterlimit:10;}
	.st69{fill:none;stroke:#222633;stroke-width:0.2829;stroke-miterlimit:10;}
	.st70{fill:none;stroke:#222633;stroke-width:0.1886;stroke-miterlimit:10;}
	.st71{fill:#4D4F52;}
	.st72{fill:#9E9C7A;}
	.st73{fill:#B6B4A3;}
	.st74{fill:#616445;}
	.st75{fill:#677C79;}
	.st76{fill:#566D6D;}
	.st77{fill:#252928;}
	.st78{fill:#494656;}
	.st79{fill:#676967;}
	.st80{fill:#525D53;}
	.st81{fill:#2C3022;}
	.st82{fill:#5E6B62;}
	.st83{fill:#3E3F2C;}
	.st84{fill:#23303A;}
	.st85{fill:#373728;}
	.st86{fill:#C1272D;}
	.st87{fill:#FFFFFF;}
	.st88{font-family:'PTSans-Bold';}
	.st89{font-size:44.4371px;}
	.st90{fill:none;stroke:#C1272D;stroke-width:7;stroke-miterlimit:10;}
	.st91{fill:none;stroke:#C1272D;stroke-width:7;stroke-miterlimit:10;stroke-dasharray:11.6452,11.6452;}
</style>
<g id="Brugge">
	<polygon id="Achtergrond" class="st0" points="191.9,152.9 61.9,160.2 61,24.3 189.1,39.3 	"/>
	<polygon id="Windows_1_" class="st1" points="206.1,127.2 177.6,130 178.3,153.2 86.7,157.7 82.2,158.1 81.5,132.1 73.9,131.3 
		108.6,128.1 177.6,125.6 201.7,125.9 	"/>
	<polygon id="Window_outline" class="st2" points="177.8,122.1 175.6,55.6 80.1,47 81,125.9 104.7,124.7 141.5,123.1 159.2,122.5 	
		"/>
	<g id="Windows">
		<polygon class="st3" points="172.3,122.1 170.8,63.3 159.7,62.4 161.3,122.3 		"/>
		<polygon class="st3" points="144,122.5 156.1,122.3 154.6,62.1 142.9,61.4 		"/>
		<polygon class="st3" points="138.6,123 137.4,60.7 125.2,59.9 126.3,123.4 		"/>
		<polygon class="st3" points="120.6,123.8 119.4,59.4 106.3,58.3 107.3,124.2 		"/>
		<polygon class="st3" points="101.4,124.6 100.5,57.7 86.7,56.8 87.4,125 		"/>
	</g>
	<g id="White_lines">
		<line class="st4" x1="171.9" y1="118.4" x2="161.3" y2="118.4"/>
		<line class="st4" x1="171.9" y1="112.3" x2="161" y2="112.3"/>
		<line class="st4" x1="171.6" y1="106.1" x2="160.7" y2="106"/>
		<line class="st4" x1="171.6" y1="100" x2="160.5" y2="99.8"/>
		<line class="st4" x1="171.3" y1="93.8" x2="160.3" y2="93.5"/>
		<line class="st4" x1="171.2" y1="87.8" x2="160.3" y2="87.3"/>
		<line class="st4" x1="170.9" y1="81.7" x2="160.2" y2="81.2"/>
		<line class="st4" x1="170.8" y1="75.5" x2="160" y2="75"/>
		<line class="st4" x1="170.6" y1="69.5" x2="159.7" y2="68.8"/>
		<line class="st4" x1="160.5" y1="62.7" x2="162.1" y2="122.3"/>
		<line class="st4" x1="169.7" y1="122.1" x2="168.2" y2="63.3"/>
		<line class="st4" x1="154.4" y1="68.4" x2="142.7" y2="67.7"/>
		<line class="st4" x1="154.4" y1="74.6" x2="142.7" y2="73.9"/>
		<line class="st4" x1="154.6" y1="80.8" x2="143.1" y2="80.3"/>
		<line class="st4" x1="154.6" y1="87.1" x2="143.1" y2="86.6"/>
		<line class="st4" x1="154.6" y1="93.3" x2="143.4" y2="93"/>
		<line class="st4" x1="155" y1="99.6" x2="143.6" y2="99.3"/>
		<line class="st4" x1="155" y1="105.7" x2="143.8" y2="105.7"/>
		<line class="st4" x1="155.2" y1="112.1" x2="144" y2="112.1"/>
		<line class="st4" x1="155.3" y1="118.4" x2="144" y2="118.4"/>
		<line class="st4" x1="153.1" y1="122.3" x2="151.7" y2="62.1"/>
		<line class="st4" x1="143.7" y1="61.4" x2="145.1" y2="122.5"/>
		<line class="st4" x1="138.2" y1="118.6" x2="125.8" y2="118.6"/>
		<line class="st4" x1="138.1" y1="112.1" x2="125.8" y2="112.1"/>
		<line class="st4" x1="138.1" y1="105.7" x2="125.8" y2="105.5"/>
		<line class="st4" x1="137.9" y1="99.3" x2="125.4" y2="98.8"/>
		<line class="st4" x1="137.4" y1="79.9" x2="125.2" y2="79.3"/>
		<line class="st4" x1="137.4" y1="73.5" x2="125.2" y2="72.8"/>
		<line class="st4" x1="137.1" y1="67.2" x2="124.9" y2="66.4"/>
		<line class="st4" x1="134.6" y1="60.7" x2="135.8" y2="123.1"/>
		<line class="st4" x1="127.3" y1="123.4" x2="126.1" y2="59.9"/>
		<line class="st4" x1="119" y1="65.9" x2="106.3" y2="65"/>
		<line class="st4" x1="119.2" y1="72.4" x2="106.5" y2="71.7"/>
		<line class="st4" x1="119.2" y1="79" x2="106.5" y2="78.3"/>
		<line class="st4" x1="119.4" y1="85.5" x2="106.7" y2="85"/>
		<line class="st4" x1="119.4" y1="92.1" x2="106.7" y2="91.6"/>
		<line class="st4" x1="119.7" y1="98.8" x2="106.7" y2="98.4"/>
		<line class="st4" x1="119.7" y1="105.3" x2="107.1" y2="105.2"/>
		<line class="st4" x1="120" y1="112.1" x2="107.1" y2="111.9"/>
		<line class="st4" x1="120" y1="118.6" x2="107.2" y2="118.6"/>
		<line class="st4" x1="117.5" y1="124" x2="116.5" y2="59.4"/>
		<line class="st4" x1="107.5" y1="58.5" x2="108.6" y2="124.3"/>
		<line class="st4" x1="100.9" y1="118.6" x2="87.3" y2="118.6"/>
		<line class="st4" x1="100.9" y1="111.8" x2="87.3" y2="111.8"/>
		<line class="st4" x1="100.9" y1="105" x2="87" y2="105"/>
		<line class="st4" x1="100.6" y1="98.1" x2="87" y2="97.9"/>
		<line class="st4" x1="100.6" y1="91.4" x2="87" y2="91.1"/>
		<line class="st4" x1="100.4" y1="84.6" x2="86.7" y2="84.1"/>
		<line class="st4" x1="100.4" y1="78" x2="86.7" y2="77.3"/>
		<line class="st4" x1="100.2" y1="71.2" x2="86.7" y2="70.5"/>
		<line class="st4" x1="100.2" y1="64.5" x2="86.1" y2="63.5"/>
		<line class="st4" x1="97.4" y1="57.6" x2="98.3" y2="125"/>
		<line class="st4" x1="88.8" y1="125" x2="88" y2="57"/>
	</g>
	<g id="Clock">
		<g>
			<ellipse class="st5" cx="132.9" cy="91" rx="7.4" ry="8.9"/>
		</g>
		<ellipse class="st6" cx="133" cy="90.9" rx="5.5" ry="6.6"/>
	</g>
	<path id="Afdak" class="st7" d="M209.1,122.5c0,0-6.7-1.4-36.8-0.4s-70,2.7-70,2.7l-31.6,1.6v2.8l3.1,2c0,0,67.8-3.6,94.3-4
		c26.5-0.4,38-0.1,38-0.1l3-2.3V122.5z"/>
	<g id="Doors">
		<polygon class="st4" points="177.3,131.7 178.3,153.2 86.7,157.7 86.7,134.7 		"/>
		<line class="st4" x1="171.2" y1="153.5" x2="170.7" y2="131.9"/>
		<line class="st4" x1="158.1" y1="154.2" x2="157.4" y2="132.3"/>
		<line class="st4" x1="150.2" y1="154.6" x2="149.7" y2="132.6"/>
		<line class="st4" x1="139.2" y1="155.1" x2="138.6" y2="133"/>
		<line class="st4" x1="129.9" y1="155.6" x2="129.5" y2="133.3"/>
		<line class="st4" x1="118.1" y1="156.2" x2="118.1" y2="133.7"/>
		<line class="st4" x1="105.5" y1="156.8" x2="104.7" y2="134.1"/>
		<line class="st4" x1="177.6" y1="136.9" x2="86.7" y2="139.6"/>
		<line class="st4" x1="86.7" y1="145.4" x2="177.8" y2="142.7"/>
		<line class="st4" x1="178" y1="147.9" x2="86.7" y2="152"/>
		<line class="st4" x1="93.7" y1="134.5" x2="93.7" y2="157.4"/>
	</g>
	<polygon id="Dak" class="st8" points="189.1,39.3 190.3,39.3 190.3,37.8 61,22.3 25.5,35.8 28.9,36.6 61,24.3 	"/>
	<polygon id="Zijkant" class="st9" points="61.9,160.2 56.1,158.7 55.9,39.3 28.9,36.6 61,24.3 	"/>
	<polygon class="st10" points="11.4,147.4 12.5,36.9 55.9,41.4 56,146.1 32,147.9 	"/>
	<polygon class="st11" points="41,58.1 19.9,56.4 20.3,147 11.4,147.4 11.4,160.2 56.1,158.7 56,146.1 41.7,146.4 	"/>
	<g id="Side_window">
		<polygon class="st12" points="36.7,107 24.5,106.8 24.5,147.1 36.7,146.8 		"/>
		<line class="st13" x1="36.4" y1="112.7" x2="24.5" y2="112.7"/>
		<line class="st13" x1="36.4" y1="118.4" x2="24.5" y2="118.4"/>
		<line class="st13" x1="36.4" y1="123.9" x2="24.5" y2="123.9"/>
		<line class="st13" x1="36.4" y1="129.5" x2="24.5" y2="129.5"/>
		<line class="st13" x1="36.4" y1="135" x2="24.5" y2="135.2"/>
		<line class="st13" x1="24.5" y1="141" x2="36.4" y2="140.7"/>
		<line class="st4" x1="25.6" y1="107" x2="25.9" y2="147"/>
		<line class="st4" x1="34.1" y1="146.8" x2="33.9" y2="107.3"/>
	</g>
	<g id="Side_window_1_">
		<polygon class="st14" points="24.4,64.4 37,65.2 37,88.5 24.4,88.1 		"/>
		<line class="st15" x1="36.4" y1="82.5" x2="24.4" y2="82.1"/>
		<line class="st15" x1="36.4" y1="77" x2="24.4" y2="76.4"/>
		<line class="st15" x1="36.4" y1="71.3" x2="24.4" y2="70.5"/>
		<line class="st15" x1="33.8" y1="65.2" x2="33.8" y2="88.1"/>
		<line class="st15" x1="25.6" y1="87.6" x2="25.6" y2="64.9"/>
	</g>
	<polygon class="st16" points="55.9,41.4 55.9,39.3 11.9,35 11.9,36.9 	"/>
</g>
<g id="Gent">
	<linearGradient id="SVGID_1_" gradientUnits="userSpaceOnUse" x1="712.1321" y1="124.5063" x2="749.4713" y2="124.5063">
		<stop  offset="0" style="stop-color:#C6A693"/>
		<stop  offset="1" style="stop-color:#514239"/>
	</linearGradient>
	<polygon class="st17" points="749.5,189.5 739.2,76.9 734.4,61.7 723.8,59.5 714,63.1 712.1,69.4 712.1,81.3 713.7,186.1 	"/>
	<g id="Toren">
		<g id="Klokhouder">
			<polygon class="st18" points="704.8,61.2 731.3,51.6 729.7,25.6 703.9,35.9 			"/>
			<polygon class="st19" points="731.3,51.6 744.6,63.9 742.6,39.2 729.7,25.6 			"/>
			<polygon class="st20" points="742.6,39.2 744.6,38.4 730,22.9 701.7,34.1 703.9,35.9 729.7,25.6 			"/>
		</g>
		<g id="Clock_faces">
			
				<ellipse transform="matrix(0.7521 -0.6591 0.6591 0.7521 149.3586 483.8313)" class="st21" cx="717.8" cy="43.4" rx="12.1" ry="8.6"/>
			
				<ellipse transform="matrix(0.7521 -0.6591 0.6591 0.7521 148.9562 484.5831)" class="st22" cx="718.6" cy="44.3" rx="8.6" ry="6.5"/>
			
				<ellipse transform="matrix(0.9394 -0.3427 0.3427 0.9394 29.2419 255.0978)" class="st21" cx="736.4" cy="44.8" rx="4.4" ry="10.3"/>
			
				<ellipse transform="matrix(0.9394 -0.3427 0.3427 0.9394 28.9616 254.7278)" class="st22" cx="735.2" cy="45.4" rx="3" ry="8.6"/>
		</g>
		<g id="Torendak">
			<path class="st23" d="M723.5,12.7c0,0-1.2-2.7-0.4-4c0,0,1.1-1,0-2s-1.4-2.7-2.7,0c0,0-1.1,2,0.2,2.3c0,0-0.4,1,0.6,1.4
				c0,0,0.5,1.4-0.2,2.4S723.5,12.7,723.5,12.7z"/>
			<path class="st24" d="M742.3,36v-2.2l-1.4-0.4l-2.7-3.2h-1.2l-0.3-0.8l0.3-0.8l-0.7-1.8c0,0,0.6-1.8-1.7-5.6
				c-2.3-3.8-6.2-8.7-12.4-8.7c-6.2,0-11.5,9.2-12,12.4c0,0-0.8-1.8-1.6,0.1v2.7l-4.8,2.5v3L730,22.9L742.3,36z"/>
			<path class="st25" d="M710.1,25.8c0,0,2.4-6.7,15.8-6.8"/>
			<path class="st26" d="M728.4,19.1c0,0,9.1,2.7,8,7.6"/>
			<path class="st26" d="M734.2,20.6c0,0-3.7-4.5-11.1-3.6c-7.4,0.9-11.6,5.1-11.6,5.1"/>
			<path class="st27" d="M732.1,17.9c0,0-4.5-2.9-9.9-2.1c-5.3,0.8-9.7,4.5-9.7,4.5"/>
			<path class="st28" d="M730.5,16.4c0,0-3.8-2.8-8.7-1.6S714,18,714,18"/>
			<path class="st29" d="M728.4,14.7c0,0-3.5-1.7-6.6-1.1s-6.2,2.6-6.2,2.6"/>
		</g>
		<g id="Toren_opdruk">
			<polyline class="st30" points="742.2,66.2 742.6,66.8 742.6,68.3 739.6,65.3 740,72.7 735.9,69 734.8,68.8 734.4,60.5 
				730.9,56.9 723.8,59.5 724.5,67.7 714,71.4 714,63.2 707.3,65.4 707,63.4 730.8,54.8 742.2,66.2 			"/>
			<polygon class="st31" points="746,65.6 742.6,66.8 730.8,54.8 705.8,63.9 703.3,61.7 731.3,51.6 			"/>
			<path class="st32" d="M738.2,70.3l-0.4-6.7c0,0-0.2-1.8-1.4-1.8V69L738.2,70.3z"/>
			<path class="st33" d="M717.6,69l3.1-1.3v-7.2c0,0-1.9-0.8-3.7,1.2L717.6,69z"/>
			<polygon class="st34" points="720.7,67.7 720.4,62.3 718.6,62.9 718.6,68.3 			"/>
			<polygon class="st34" points="737.4,69.7 737.1,63.9 736.4,62.7 736.4,69 			"/>
			<polygon class="st32" points="734.4,61.7 729,63.6 723.8,59.5 730.9,56.9 734.4,60.5 			"/>
			<polygon class="st32" points="712.7,69 714,63.1 707.6,65.3 712.1,69.4 			"/>
			<polygon class="st32" points="739.9,70.4 739.6,65.3 742.6,68.3 741.3,69 741.7,69.7 			"/>
			<polygon class="st35" points="741.3,73.9 735.9,69 724.5,67.7 714,71.4 713.4,71.6 710.2,77.5 712.3,79.4 712.3,75.7 714,72.6 
				724.6,69.1 735.6,70.1 740.6,75 			"/>
			<path class="st36" d="M740.6,75l-1.4,1.8c0,0-2.4-3.2-5.4-3.7c-3-0.5-3.8-0.8-8.5-0.6c-4.6,0.2-8.5,2.2-10.4,3.2
				s-2.7,3.6-2.7,3.6v-3.7l1.7-3.1l10.7-3.4l11,1L740.6,75z"/>
			<path class="st37" d="M740.6,90.9l-0.1-1.8c0,0-1.5-2.9-5.5-3.7c-4-0.8-6.3-0.8-8.2-0.6c-1.9,0.1-3.6,0-7,1.2
				c-3.4,1.2-5,2.5-5,2.5v1.8c0,0,1.8-1.9,6.1-3s7.4-0.9,7.4-0.9s3.8-0.1,6.1,0.7C734.4,87,738.6,87.6,740.6,90.9z"/>
			<path class="st38" d="M741.9,103.3v-1.6c0,0-2.3-2.6-6.3-3.4c-4-0.8-7-0.5-8.9-0.3c-1.9,0.1-3.6,0-7,1.2c-3.4,1.2-5,2.5-5,2.5
				v1.8c0,0,1.8-1.9,6.1-3s7.4-0.9,7.4-0.9s5.1,0.1,6.6,0.4C734.8,99.8,739.8,100,741.9,103.3z"/>
			<path class="st39" d="M742.8,113.9l-0.1-1.6c0,0-2.2-2.9-5.8-3.2l-0.2,1.6C736.8,110.6,740.6,111.1,742.8,113.9z"/>
			<path class="st40" d="M727.7,108.4v1.6c0,0-6.8,0.1-10.4,2.2c0,0-3.3,1.3-4.8,3.6v-1.3c0,0,0.4-2.2,5.4-4.3
				C722.8,108.1,727.7,108.4,727.7,108.4z"/>
			<path class="st41" d="M743.9,127.3l-0.1-1.7c0,0-2.2-3.3-6.9-3.4v1.5C736.9,123.6,741.4,124.2,743.9,127.3z"/>
			<path class="st42" d="M729.6,123.2l-0.1-1.7c0,0-5.6-0.1-10.7,1.7c-5,1.8-6.4,4.2-6.4,4.2v1.7c0,0,2.6-3.1,6.5-4.3
				C722.8,123.6,725.6,123.4,729.6,123.2z"/>
			<path class="st43" d="M745,138.5l-0.2-2.4c0,0-3.1-3-8.7-3.5c-5.6-0.4-9.3-0.5-13.8,0.7c-4.5,1.2-7.6,2.8-7.6,2.8v1.9
				c0,0,5.2-3.1,10.9-3.5s8.7-0.3,12.6,0.3C742.1,135.5,745,138.5,745,138.5z"/>
			<path class="st44" d="M746.1,151.5l-0.3-1.7c0,0-2.7-3-10.6-3.1c-7.9-0.1-7.3-0.4-14.9,1.2c0,0-3.2,0.8-5.9,2.3v1.9
				c0,0,4.8-3,12.4-3.8c7.5-0.8,12.5,0.3,12.5,0.3S743.2,149.3,746.1,151.5z"/>
			<path class="st45" d="M747.1,162.8l-0.2-1.8c0,0-2.7-2.4-6.4-2.5v1.7C740.5,160.3,744.2,160.7,747.1,162.8z"/>
			<path class="st46" d="M730.8,160l-0.1-1.6c0,0-4.3-0.2-10.1,1.1c-5.8,1.3-6.9,2.8-6.9,2.8v1.6c0,0,3.1-1.9,7.7-2.9
				C721.4,161,727.1,159.9,730.8,160z"/>
			<path class="st47" d="M748.5,176.7l-0.1-1.5c0,0-3-2.2-7.3-2.5l0.2,1.9C741.3,174.5,744.8,174.8,748.5,176.7z"/>
			<path class="st48" d="M732.8,174v-1.7c0,0-3-0.2-9.8,0.9s-9.3,3.1-9.3,3.1v1.8c0,0,5-2.6,9.3-3.3C727.3,174,732.8,174,732.8,174z
				"/>
			<polygon class="st49" points="736.9,123.6 736.1,110.1 729.3,109.7 728.8,110 729.6,123.2 			"/>
			<path class="st50" d="M734.1,121.5l-0.4-9.2c0,0-0.7-0.8-2.2-0.1l0.2,9.4H734.1z"/>
			<polygon class="st51" points="733.3,121.5 733,112.9 731.4,112.9 731.7,121.5 			"/>
			<polygon class="st52" points="736.8,110.6 736.1,110.1 729.3,109.7 728.8,110 727.7,110 727.7,106.2 730.4,106 730.1,101.5 
				733.8,101.8 734.3,106.3 736.5,106.7 736.9,109 			"/>
			<polygon class="st53" points="712.2,105.3 714.8,103.4 714.8,101.6 714.8,92.6 714.3,92.8 714.3,90.6 714.8,90.3 714.8,88.5 
				714.8,86.2 713.2,87.4 713.3,83.5 712.4,84.1 711.9,85.7 711,93.6 711.3,93.7 			"/>
			<polygon class="st53" points="712.4,154.1 714.4,152.2 714.4,150.3 714.1,142.5 714.1,138.2 714.8,138.1 714.8,136.2 714.9,134 
				713.4,134.7 713.4,130.9 712.4,131.4 711.2,140.6 711.7,140.9 			"/>
			<path class="st54" d="M741.3,174.5l-0.2-1.9l-0.9-0.4v-2l-0.5-0.3v-1.7l0.3-0.7l-0.1-2.2l0.3-0.2v-2.1l-0.5-0.3v-2.6l0.9,0.1
				v-1.7l-0.5-2.5l-2.7-0.4l-0.3-4.6h-3.6v4.5l-2.8,0.2l0.1,2.6l0.1,1.6l1.1,0l0.3,2.7h-0.7l0.2,2.2h0.5l0.1,2.5h0.5v2.2l-0.3,0.3
				l0.3,2.4v1.7C732.8,174,737.9,173.8,741.3,174.5z"/>
			<path class="st55" d="M737.5,172l-0.3-9.5c0,0-1-1.2-2.5-0.3l0.4,9.8H737.5z"/>
			<polygon class="st56" points="736.7,172 736.2,162.7 734.6,162.7 735,172 			"/>
		</g>
	</g>
	<g id="Front_crown">
		<polygon class="st57" points="713.7,186.1 713.7,162.3 708.2,161.9 571.6,155.3 569.4,162.1 569.4,186.2 		"/>
		<polygon class="st58" points="708.2,166.4 708.2,161.9 702,161.4 702,160.2 701.3,158.4 694.7,158.4 694.1,160.1 694.1,160.9 
			689.4,160.8 689.4,159.7 688.8,157.9 681.8,157.9 681.2,159.3 681.2,160.6 676.6,160.2 676.6,156.8 677.4,155.7 674.8,154.1 
			668.6,153.7 668.6,156 668.6,159.6 663.7,159.4 663.7,155.1 663.3,153.4 656.1,153.1 655.4,154.7 655.4,159.1 650.5,158.9 
			650.5,153.1 651.2,151.2 648.8,149.4 644.4,149 645.1,147.2 642.4,145.7 641.4,145.7 640.6,144.9 639.8,145.4 637.9,145.4 
			636.1,146.7 635.3,148.4 631.6,148.2 629.7,149.9 629,151.3 630.2,151.7 630.2,158.2 624.4,157.8 624.4,153.1 624.4,151.4 
			617,151 616.6,157.1 610.9,157 610.9,150.7 604.9,150.2 602.6,151.8 602.6,153.5 603.4,153.7 603.3,156.8 597.5,156.5 
			597.5,153.2 589.7,152.8 589.7,156 583.3,156 583.6,152.6 575.9,151.9 575.3,162.1 581.4,162.4 581.6,164 590.9,164.3 
			590.9,162.7 595.4,162.9 595.5,164.8 604.5,165.4 604.7,163.6 609.3,163.6 609.4,165.3 618,165.8 618,164 622.5,164.1 
			622.6,166.1 629.5,166.4 629.4,170.1 650.7,170.9 651,167.2 657.2,167.5 657.3,166.2 662.4,166 662.4,168.2 670.5,168.5 
			670.5,166.7 675.2,166.9 675.5,168.6 683.7,168.9 683.6,167.5 688.1,167.5 688.2,169.3 696.2,169.4 696.2,167.9 702.7,168.1 
			702.6,166.3 		"/>
		<line class="st59" x1="582.2" y1="173.4" x2="582.5" y2="164"/>
		<line class="st59" x1="589.3" y1="173.7" x2="589.9" y2="164.3"/>
		<line class="st59" x1="596.3" y1="173.7" x2="596.7" y2="164.9"/>
		<line class="st59" x1="603.2" y1="174" x2="603.4" y2="165.3"/>
		<line class="st59" x1="610" y1="174.3" x2="610.4" y2="165.4"/>
		<line class="st59" x1="616.8" y1="174.7" x2="617.1" y2="165.7"/>
		<polyline class="st59" points="623.8,166.1 623.8,174.7 570,172.2 		"/>
		<line class="st59" x1="656.6" y1="176.1" x2="656.4" y2="167.5"/>
		<line class="st59" x1="663.4" y1="176.5" x2="663.4" y2="168.3"/>
		<line class="st59" x1="669.8" y1="176.9" x2="669.8" y2="168.5"/>
		<line class="st59" x1="676.3" y1="177.2" x2="676.3" y2="168.6"/>
		<line class="st59" x1="683.1" y1="177.2" x2="682.8" y2="168.9"/>
		<line class="st59" x1="689.4" y1="178" x2="689.4" y2="169.3"/>
		<line class="st59" x1="695.9" y1="178" x2="695.5" y2="169.4"/>
		<line class="st59" x1="702.3" y1="178.3" x2="701.9" y2="168.1"/>
		<polyline class="st59" points="656.5,175.6 707.9,178 709.4,177.5 713.6,177.5 		"/>
		<line class="st59" x1="575.3" y1="173.4" x2="575.9" y2="162.1"/>
	</g>
	<g id="Turret">
		<linearGradient id="SVGID_2_" gradientUnits="userSpaceOnUse" x1="542.9434" y1="173.591" x2="570.0048" y2="173.591">
			<stop  offset="0" style="stop-color:#AF8C6C"/>
			<stop  offset="1" style="stop-color:#3A261B"/>
		</linearGradient>
		<path class="st60" d="M569.4,186.2l0.6-22.6c0,0-9.5-6.9-25.4-1.5l-1.6,25.1L569.4,186.2z"/>
		<path class="st61" d="M562.9,122.1c0,0-1.3-2-1.1-4.4c0,0,2.2-0.4,0-1.8v-3.5c0,0,2-1.1-0.6-2.3c0,0-2.3,0.6-0.6,2.3l-0.5,3.3
			c0,0-2,0.4-0.4,2c0,0,0.4,3-1.5,3.9L562.9,122.1z"/>
		<path class="st62" d="M571.5,138.4l-0.7-0.3v-0.6l0.3-0.6c0,0,1-10.2-7-13.8c0,0-2.3-3.1-7.3-1.1v0.6c0,0-6.2,1.3-8.6,9.4v4.8
			l-1.8,0.4v1.1l25.1,1.6L571.5,138.4z"/>
		<polygon class="st63" points="572.1,145.2 573.3,144.7 572.9,140.4 571.5,139.8 564.6,136.9 552.9,136.1 544.7,138.8 545.7,142.6 
					"/>
		<path class="st64" d="M570,163.6c0,0-8.7-5.3-25.4-1.5l-1.9-5.1l8.1-2.6l1.1,0l12.1,0.5l8.9,3.3l-0.7,1.1l-0.1,1.7l-0.7,0.9
			L570,163.6z"/>
		<path class="st65" d="M570,171.4c0,0-7.7-4.7-19.1-3.1l0.5,2.1c0,0,12.9-0.8,18.5,2.8V171.4z"/>
		<path class="st66" d="M550.8,184.1c0,0,5.1-0.8,15.2,1.4l2.6,0.7l-10.7,0.4c0,0-5-0.9-7.3-0.6L550.8,184.1z"/>
		<path class="st67" d="M571.3,135.3c0,0-9.2-9.1-23.3-2.4"/>
		<path class="st68" d="M570.1,130.8c0,0-8.9-6.8-20.6-1.5"/>
		<path class="st69" d="M569.4,128.3c0,0-8-6.4-18.6-1.5"/>
		<path class="st70" d="M567,125.4c0,0-5.8-4-14.1-1"/>
	</g>
	<g id="Windows_2_">
		<polygon class="st71" points="552.9,137.4 551.9,154.5 564,155.1 571.5,157.9 572.2,141.6 563.8,138.2 		"/>
		<path class="st72" d="M550.9,168.3c0,0-5.1-1.4-6.9,1.9l-1.1,16.9c0,0,3.8-1.3,7.7-1.1l0.2-2h-0.7l0.3-1.8h0.9l0.2-2.1l-1.1,0
			l0.3-2.1l0.8-0.1v-1.3h-0.6l0.2-1.8l0.8-0.3v-1.8h-0.7l0.2-2.5L550.9,168.3z"/>
		<polygon class="st73" points="551.9,154.5 550.8,154.5 544.7,156.4 545.9,139.9 552.9,137.4 		"/>
		<path class="st74" d="M549.3,185.2c0,0-3.2,0.4-5.2,0.8l0.8-15c0,0,2-3.3,5.3-1L549.3,185.2z"/>
		<polygon class="st75" points="549.3,183.8 547.5,184.1 547.7,178.9 549.6,178.6 		"/>
		<polygon class="st76" points="549.6,177.1 547.5,177.7 547.9,172.1 550.1,171.4 		"/>
		<path class="st77" d="M550.8,152.8l-4.7,1.4l0.7-11.3c0,0,2.5-3,4.7-1.3L550.8,152.8z"/>
		<polygon class="st78" points="549.2,151.8 550.8,151.4 550.8,147.7 549.2,148.1 		"/>
		<polygon class="st78" points="551,146.4 549.2,147 549.2,144 551,143.3 		"/>
		<path class="st77" d="M561,151.8h-6.7l0.2-10.7c0,0,4.3-1.8,7.4,0.6l-0.6,10.2H561z"/>
		<polygon class="st78" points="555.8,150.8 559.9,151.2 560.2,147.3 555.8,147 		"/>
		<path class="st78" d="M555.6,145.9l5,0.2l0.2-3c0,0-2.2-1.1-5-0.3L555.6,145.9z"/>
		<path class="st77" d="M564.6,153.1l0.4-10.1c0,0,2.9-0.5,4.4,1.4l-0.7,10L564.6,153.1z"/>
		<path class="st78" d="M567.8,148.1l-2.8-0.9V144c0,0,1.8-0.3,3,1.2L567.8,148.1z"/>
		<polygon class="st78" points="567.3,152.9 567.5,149.1 565,148.1 564.6,152.1 		"/>
		<path class="st79" d="M682.1,185.4V183h-2.4c0,0-8.7-5.9-20.5-1h-2.4v3.1L682.1,185.4z"/>
		<path class="st80" d="M653.2,185v-2.6h-0.7v-2.2h0.7v-3.4h-2.6c0,0-9.4-6.5-21.6-0.9l-1.7-0.1l-0.2,2.8h0.6v2.8H627v2.6v0.9
			L653.2,185z"/>
		<path class="st81" d="M650.6,185l0.4-6.3c0,0-10.7-7.6-22.1-1.1v7.4L650.6,185z"/>
		<path class="st82" d="M623.4,185v-4.2h-1.7c0,0-8.3-6.5-22.3-1.2l-2-0.1l-0.5,5.9L623.4,185z"/>
		<path class="st83" d="M621.3,185v-2.7c0,0-8.2-7-22.7-1v4L621.3,185z"/>
		<path class="st84" d="M631.6,185v-4.7c0,0,9.3-3.4,16.2,0.8v3.9H631.6z"/>
		<path class="st85" d="M680.2,185.4v-0.8c0,0-10.5-6.7-21.8-0.5v0.9L680.2,185.4z"/>
		<path class="st84" d="M601.5,185.3v-1.1c0,0,8.8-3.1,15.1,0l1.2,0.4v0.4L601.5,185.3z"/>
	</g>
</g>
<circle class="st86" cx="644.7" cy="185" r="14.8"/>
<circle class="st86" cx="119" cy="144.5" r="14.8"/>
<path class="st86" d="M383.6,195.4c0,0,34.3-5.6,22.9-20.9c-11.4-15.4-16.3-19.4-20.4-23.6c-4.2-4.2-14.1-5.1-14.1-5.1
	s-42.7-2.5-84.9-11.1l-11.2,46.7C275.8,181.2,333.1,194.8,383.6,195.4z"/>
<path class="st87" d="M380.9,175.4c0,0,27.3,13,17.5-0.2c-9.8-13.2-14-16.6-17.5-20.3c-3.6-3.6-12.3-4.4-12.3-4.4
	s-40.6-2.7-77.5-10.2l-5.2,23.3C285.8,163.7,337.5,174.9,380.9,175.4z"/>
<g>
	
		<ellipse transform="matrix(0.1458 -0.9893 0.9893 0.1458 118.4815 449.9388)" class="st86" cx="319.8" cy="156.4" rx="5.8" ry="5.8"/>
	<path class="st86" d="M320.9,189.6c1.5,0.1,2.8-0.9,3.1-2.5l2.4-16.6c0.3-3.2-1.8-6.2-4.9-6.6l-5.7-0.8c-3.2-0.5-6.2,1.8-6.6,4.9
		l-2.4,16.6c-0.2,1.4,0.8,2.9,2.2,3.3"/>
	<ellipse transform="matrix(0.192 -0.9814 0.9814 0.192 93.0988 420.0913)" class="st86" cx="301.7" cy="153.5" rx="5.8" ry="5.8"/>
	<path class="st86" d="M301.3,186.7c1.5,0.2,2.9-0.8,3.2-2.4l3.2-16.4c0.5-3.2-1.5-6.3-4.6-6.9l-5.6-1.1c-3.1-0.6-6.3,1.5-6.9,4.6
		l-3.2,16.4c-0.3,1.4,0.6,3,2,3.4"/>
	
		<ellipse transform="matrix(0.1292 -0.9916 0.9916 0.1292 136.5839 474.428)" class="st86" cx="338.4" cy="159.4" rx="5.8" ry="5.8"/>
	<path class="st86" d="M340.1,192.6c1.5,0.1,2.8-1,3-2.6l2.2-16.6c0.3-3.2-1.9-6.1-5-6.6l-5.7-0.7c-3.2-0.4-6.1,1.9-6.6,5l-2.2,16.6
		c-0.2,1.4,0.8,2.9,2.3,3.2"/>
	
		<ellipse transform="matrix(8.132300e-02 -0.9967 0.9967 8.132300e-02 167.2075 504.1212)" class="st86" cx="357.1" cy="161.4" rx="5.8" ry="5.8"/>
	<path class="st86" d="M360.4,194.4c1.5,0,2.8-1.1,2.9-2.7l1.4-16.7c0.1-3.2-2.2-6-5.4-6.3l-5.7-0.5c-3.2-0.3-6,2.2-6.3,5.4
		l-1.4,16.7c-0.1,1.5,1,2.9,2.4,3.1"/>
	<ellipse transform="matrix(1 -3.089110e-03 3.089110e-03 1 -0.4993 1.1593)" class="st86" cx="375" cy="162.2" rx="5.8" ry="5.8"/>
	<path class="st86" d="M381.1,194.9c1.5-0.1,2.7-1.3,2.6-2.9l-0.1-16.7c-0.1-3.2-2.7-5.8-5.9-5.8l-5.7,0c-3.2,0-5.8,2.7-5.8,5.9
		l0.1,16.7c0,1.5,1.2,2.8,2.7,2.9"/>
</g>
<g>
	<g>
		<g>
			<path class="st86" d="M339.1,125.1c-3-0.4-5.7,1.7-6.1,4.7c-0.4,3,1.7,5.7,4.7,6.1c3,0.4,5.7-1.7,6.1-4.7S342,125.4,339.1,125.1z
				 M370.4,110c-6.1-9.5-16-15.8-27.1-17.3c-11.1-1.5-22.3,2.1-30.6,9.7c-1.1,1-1.2,2.7-0.2,3.8c0.4,0.5,1,0.8,1.6,0.9
				c0.8,0.1,1.6-0.1,2.2-0.7c7.1-6.5,16.7-9.6,26.2-8.3c9.5,1.2,18,6.6,23.2,14.8c0.5,0.7,1.2,1.1,1.9,1.2c0.6,0.1,1.3,0,1.8-0.4
				C370.8,112.9,371.2,111.3,370.4,110z M341.9,103.5c-8-1-15.9,1.5-21.9,6.9c-1.1,1-1.2,2.7-0.2,3.8c0.4,0.5,1,0.8,1.6,0.9
				c0.8,0.1,1.6-0.1,2.2-0.7c4.8-4.4,11.1-6.4,17.5-5.6c6.4,0.8,12,4.4,15.5,9.9c0.5,0.7,1.2,1.1,1.9,1.2c0.6,0.1,1.3,0,1.8-0.4
				c1.3-0.8,1.6-2.5,0.8-3.7C356.9,109,349.8,104.5,341.9,103.5z M340.5,114.3c-4.8-0.6-9.6,0.9-13.1,4.2c-1.1,1-1.2,2.7-0.2,3.8
				c0.4,0.5,1,0.8,1.6,0.9c0.8,0.1,1.6-0.1,2.2-0.7c2.4-2.2,5.6-3.2,8.7-2.8c3.2,0.4,6,2.2,7.7,4.9c0.4,0.7,1.2,1.1,1.9,1.2
				c0.6,0.1,1.3,0,1.8-0.4c1.3-0.8,1.6-2.5,0.8-3.7C349.5,117.6,345.3,114.9,340.5,114.3z"/>
		</g>
	</g>
</g>
<text transform="matrix(0.9785 -0.2064 0.2064 0.9785 603.6405 80.3256)" class="st86 st88 st89">!</text>
<g>
	<g>
		<path class="st86" d="M637.5,77.5c0.1-5.1-3.9-9.3-8.9-9.4c-5.1-0.1-9.3,3.9-9.4,8.9c-0.1,5.1,3.9,9.3,8.9,9.4
			C633.2,86.5,637.4,82.5,637.5,77.5z"/>
		<path class="st86" d="M609.9,96.4l5.5-2.2l-4.3,3.1l13.5,9.1c0.8,0.5,1.8,0.6,2.7,0.4c0.9-0.2,1.8-0.7,2.4-1.5l1.6-2.2l1.8,15.9
			c0,0.2,0.1,0.4,0.1,0.7l-4.9,18c-0.1,0.5-0.2,1.1-0.2,1.6l2.1,29.2l9.6-1.2l-2-27.9l1.7-6.4l0.4,7.5c0,0.2,0,0.4,0.1,0.5l4.4,25.6
			l9.6-1.2l-4.4-25.8l-1.2-21l0,0c0-0.5,0-1,0-1.5l-2.8-24.5c-0.5-4.3-4.3-7.3-8.6-6.8c-1.6,0.1-3,0.8-4.1,1.8l0,0l-8.7,7.6
			l-10.2-7.8l-0.2,0.2l2.1,5.1l9.6,4.4l5.5-6.7l0,0l2-2.4l-7.4,9.9l-10.3-4.7l-3.8-9.2l-5.7,2.3L609.9,96.4z"/>
	</g>
</g>
<g>
	<g>
		<path class="st90" d="M752.3,188.2c2,0.2,4,0.4,6,0.6"/>
		<path class="st91" d="M769.8,190.2c41,5.1,70.7,12,85.8,16"/>
		<path class="st90" d="M861.2,207.7c3.8,1.1,5.8,1.7,5.8,1.7"/>
		<g>
			<polygon class="st86" points="884.4,215 856.7,217.1 865.7,209 863.1,197.1 			"/>
		</g>
	</g>
</g>
<path class="st90" d="M119,144.5c0,0,222.6,74.9,416.8,47.9c20.6-2.9,40.5-4.9,59.7-6.3c60.6-4.4,113.9-2.3,156.8,2.1"/>
</svg>
