<?xml version="1.0" encoding="utf-8"?>
<!-- Generator: Adobe Illustrator 16.0.0, SVG Export Plug-In . SVG Version: 6.00 Build 0)  -->
<!DOCTYPE svg PUBLIC "-//W3C//DTD SVG 1.1//EN" "http://www.w3.org/Graphics/SVG/1.1/DTD/svg11.dtd">
<svg version="1.1" id="Layer_1" xmlns="http://www.w3.org/2000/svg" xmlns:xlink="http://www.w3.org/1999/xlink" x="0px" y="0px"
	 width="240px" height="180px" viewBox="0 0 240 180" enable-background="new 0 0 240 180" xml:space="preserve">
<path fill="none" d="M127.568,51.343c-1.005-0.127-2.025-0.191-3.03-0.191c-12.208,0.001-22.556,9.148-24.068,21.278
	c-1.66,13.287,7.795,25.445,21.083,27.105c1.006,0.127,2.027,0.191,3.034,0.191c12.209,0,22.563-9.147,24.077-21.279
	c0.8-6.422-0.953-12.781-4.942-17.91C139.728,55.41,133.994,52.145,127.568,51.343z"/>
<path fill="#CC2929" d="M122.586,98.499c13.315,1.662,25.449-7.782,27.11-21.087c1.661-13.308-7.78-25.443-21.093-27.104
	c-13.315-1.664-25.439,7.781-27.1,21.087C99.843,84.701,109.27,96.837,122.586,98.499z"/>
<path d="M119.11,10.804c-0.839-5.171-5.716-8.672-10.887-7.831c-5.163,0.843-8.667,5.715-7.822,10.881
	c0.548,3.386,2.827,6.052,5.789,7.257c0.644,5.46,1.49,12.521,1.974,15.996l8.877-1.237c-0.464-3.346-1.301-10.316-1.938-15.738
	C118.034,18.117,119.722,14.549,119.11,10.804z"/>
<path d="M73.474,136.827c1.963,3.084,3.957,6.097,5.949,9.009c7.195-4.007,16.155-7.459,27.823-6.002
	c7.564,0.945,18.096,5.306,25.88,12.537c2.686-2.377,5.394-4.843,8.09-7.393c-7.659-7.208-18.572-13.982-32.535-15.726
	C94.6,127.494,82.793,131.541,73.474,136.827z"/>
<path d="M84.62,151.016c2.31,3.236,4.542,6.284,6.625,9.117c3.83-2.933,8.866-3.518,13.544-2.933
	c4.64,0.581,10.604,2.989,12.741,6.195c2.748-2.268,5.694-4.718,8.77-7.336c-4.493-3.853-10.869-8.411-20.164-9.57
	C96.946,145.342,90.007,148.33,84.62,151.016z"/>
<path d="M110.646,168.231c-0.089-0.328-0.215-0.64-0.349-0.947c-0.007-0.004-0.012-0.006-0.016-0.008
	c0.002-0.004,0.004-0.006,0.008-0.009c-0.996-2.293-3.157-4.038-5.872-4.376c-2.577-0.323-4.993,0.696-6.54,2.487
	c-0.232,0.269-0.438,0.556-0.628,0.855c-0.191,0.306-0.346,0.634-0.489,0.969c-0.253,0.592-0.458,1.213-0.543,1.882
	c-0.172,1.382,0.09,2.714,0.66,3.896c0.468,0.976,1.153,1.838,2.013,2.525c1.042,0.835,2.321,1.417,3.757,1.597
	c0.792,0.099,1.557,0.04,2.3-0.098c2.327-0.431,4.286-1.926,5.264-4.022c0.304-0.646,0.54-1.328,0.635-2.072
	C110.958,169.985,110.875,169.083,110.646,168.231z"/>
<path d="M223.762,75.722c-1.455-5.881-15.255-7.982-36.611-3.836c-4.962,0.964-9.425,2.331-13.354,3.861
	c-5.726-24.334-26.02-43.75-52.24-47.026c-2.578-0.322-5.141-0.479-7.676-0.479c-30.579,0-57.16,22.833-61.045,53.942
	c-0.081,0.647-0.11,1.326-0.148,2.002c-0.111,1.964-0.036,4.035,0.194,6.183c-4.293,0.196-9.044,0.779-14.111,1.987
	C18.072,97.288,6.63,104.734,7.71,110.56c1.081,5.827,17.603,10.664,31.771,6.508c5.607-1.646,12.111-4.999,18.05-8.599
	c0.366,0.97,0.743,1.939,1.142,2.912c0.057,0.134,0.11,0.269,0.167,0.403c1.296,3.133,2.768,6.274,4.349,9.399
	c1.74,3.442,3.622,6.861,5.601,10.229c9.071-5.231,20.097-8.821,32.708-8.821c2.753,0,5.585,0.17,8.486,0.534
	c16.061,2.006,28.565,9.127,37.636,17.806c2.902-2.946,5.725-5.963,8.383-9.037c3.178-3.676,6.126-7.421,8.715-11.196
	c0.114-0.164,0.224-0.326,0.333-0.492c0.831-1.226,1.629-2.452,2.379-3.683c0.795-1.309,1.525-2.604,2.215-3.895
	c2.839-5.297,4.769-10.428,5.364-15.19c0.116-0.931,0.186-1.855,0.242-2.779c7.402,0.949,15.408,1.425,21.67,0.539
	C211.873,93.086,225.217,81.604,223.762,75.722z M157.559,79.558c-2.097,16.801-13.002-4.12-31.958-6.092
	c-14.201-1.479-36.299,16.046-34.028-2.146c2.096-16.8,16.456-29.132,32.966-29.132c1.368,0,2.75,0.085,4.142,0.259
	C146.877,44.717,159.831,61.367,157.559,79.558z"/>
<circle fill="#FFFFFF" cx="121.358" cy="65.234" r="4.709"/>
<circle fill="#FFFFFF" cx="133.534" cy="65.394" r="5.989"/>
</svg>
