<?xml version="1.0" encoding="utf-8"?>
<!-- Generator: Adobe Illustrator 16.0.0, SVG Export Plug-In . SVG Version: 6.00 Build 0)  -->
<!DOCTYPE svg PUBLIC "-//W3C//DTD SVG 1.1//EN" "http://www.w3.org/Graphics/SVG/1.1/DTD/svg11.dtd">
<svg version="1.1" id="Layer_1" xmlns="http://www.w3.org/2000/svg" xmlns:xlink="http://www.w3.org/1999/xlink" x="0px" y="0px"
	 width="240px" height="180px" viewBox="0 0 240 180" enable-background="new 0 0 240 180" xml:space="preserve">
<path fill="#CC2929" d="M125.313,107.521c11.847,1.479,22.642-6.924,24.12-18.762c1.478-11.84-6.922-22.637-18.767-24.115
	c-11.847-1.48-22.633,6.923-24.111,18.761C105.078,95.244,113.464,106.042,125.313,107.521z"/>
<path fill="#CC2929" d="M122.22,29.498c-0.747-4.601-5.085-7.715-9.687-6.967c-4.594,0.75-7.712,5.085-6.959,9.681
	c0.488,3.012,2.515,5.384,5.15,6.458c0.572,4.858,1.325,11.14,1.756,14.23l7.898-1.101c-0.413-2.976-1.158-9.178-1.725-14.002
	C121.263,36.003,122.764,32.831,122.22,29.498z"/>
<path d="M81.617,141.621c1.747,2.744,3.521,5.425,5.293,8.015c6.401-3.564,14.372-6.636,24.753-5.339
	c6.731,0.841,16.101,4.72,23.027,11.154c2.39-2.114,4.799-4.309,7.198-6.577c-6.814-6.413-16.523-12.44-28.946-13.991
	C100.414,133.318,89.909,136.918,81.617,141.621z"/>
<path d="M91.533,154.244c2.056,2.88,4.042,5.591,5.895,8.112c3.407-2.609,7.888-3.129,12.051-2.609
	c4.127,0.517,9.435,2.66,11.335,5.512c2.444-2.018,5.065-4.198,7.803-6.527c-3.997-3.427-9.67-7.483-17.94-8.515
	C102.5,149.197,96.327,151.855,91.533,154.244z"/>
<path fill="#CC2929" d="M109.978,1.1c0.257,2.143,0.548,4.256,0.866,6.314c4.854-0.295,10.503,0.155,16.343,3.911
	c3.785,2.435,8.278,7.446,10.574,13.283c2.037-0.579,4.109-1.2,6.194-1.869c-2.236-5.792-6.314-12.185-13.302-16.68
	C123.605,1.527,116.288,0.666,109.978,1.1z"/>
<path fill="#CC2929" d="M112.287,11.499c0.403,2.312,0.813,4.505,1.197,6.544c2.788-0.583,5.617,0.391,7.959,1.898
	c2.321,1.493,4.881,4.299,5.2,6.551c2.042-0.505,4.236-1.058,6.542-1.665c-1.408-3.198-3.638-7.253-8.29-10.244
	C120.296,11.626,115.84,11.445,112.287,11.499z"/>
<path d="M114.688,169.562c-0.079-0.292-0.191-0.569-0.31-0.842c-0.007-0.003-0.011-0.005-0.014-0.007
	c0.001-0.003,0.003-0.005,0.007-0.008c-0.886-2.04-2.808-3.592-5.224-3.893c-2.293-0.288-4.443,0.619-5.818,2.212
	c-0.207,0.239-0.391,0.495-0.559,0.762c-0.17,0.271-0.308,0.563-0.435,0.862c-0.226,0.526-0.408,1.079-0.483,1.674
	c-0.153,1.229,0.08,2.414,0.588,3.465c0.416,0.869,1.025,1.635,1.79,2.248c0.927,0.743,2.065,1.26,3.343,1.42
	c0.705,0.087,1.385,0.035,2.045-0.087c2.07-0.383,3.813-1.713,4.684-3.579c0.27-0.574,0.48-1.182,0.564-1.844
	C114.968,171.123,114.894,170.319,114.688,169.562z"/>
<path d="M215.329,87.256c-1.294-5.232-13.573-7.103-32.573-3.414c-4.415,0.858-8.385,2.074-11.881,3.436
	c-5.094-21.65-23.15-38.925-46.478-41.839c-2.293-0.287-4.574-0.427-6.83-0.427c-27.207,0-50.854,20.314-54.312,47.992
	c-0.072,0.576-0.099,1.18-0.131,1.781c-0.099,1.749-0.032,3.591,0.172,5.502c-3.819,0.174-8.045,0.693-12.554,1.767
	c-18.415,4.389-28.594,11.014-27.635,16.197c0.961,5.184,15.661,9.489,28.268,5.79c4.988-1.463,10.775-4.448,16.059-7.649
	c0.326,0.863,0.661,1.725,1.015,2.591c0.051,0.119,0.098,0.238,0.148,0.358c1.153,2.788,2.462,5.583,3.87,8.363
	c1.548,3.062,3.222,6.104,4.983,9.101c8.071-4.654,17.881-7.848,29.101-7.848c2.45,0,4.969,0.151,7.55,0.476
	c14.29,1.784,25.415,8.12,33.484,15.842c2.583-2.622,5.094-5.306,7.459-8.041c2.827-3.27,5.451-6.603,7.754-9.961
	c0.102-0.146,0.199-0.29,0.296-0.438c0.739-1.09,1.449-2.182,2.117-3.276c0.708-1.165,1.357-2.316,1.971-3.465
	c2.526-4.713,4.243-9.278,4.772-13.515c0.104-0.829,0.166-1.652,0.215-2.473c6.586,0.844,13.708,1.269,19.28,0.48
	C204.751,102.705,216.623,92.489,215.329,87.256z M156.427,90.669c-1.866,14.948-14.642,25.919-29.334,25.919
	c-1.221,0-2.45-0.076-3.69-0.23c-16.184-2.021-27.704-16.833-25.684-33.019c1.865-14.947,14.641-25.918,29.331-25.919
	c1.217,0,2.446,0.076,3.685,0.23C146.924,59.67,158.449,74.483,156.427,90.669z"/>
<polyline fill="none" stroke="#FFFFFF" stroke-width="4.6084" stroke-linecap="round" stroke-linejoin="round" stroke-miterlimit="10" points="
	126.864,72.981 126.864,87.346 143.733,84.046 "/>
</svg>
