<?xml version="1.0" encoding="utf-8"?>
<!-- Generator: Adobe Illustrator 16.0.0, SVG Export Plug-In . SVG Version: 6.00 Build 0)  -->
<!DOCTYPE svg PUBLIC "-//W3C//DTD SVG 1.1//EN" "http://www.w3.org/Graphics/SVG/1.1/DTD/svg11.dtd">
<svg version="1.1" id="Layer_1" xmlns="http://www.w3.org/2000/svg" xmlns:xlink="http://www.w3.org/1999/xlink" x="0px" y="0px"
	 width="240px" height="180px" viewBox="0 0 240 180" enable-background="new 0 0 240 180" xml:space="preserve">
<path fill="none" d="M131.329,48.967c-1.03-0.129-2.074-0.194-3.102-0.194c-12.499,0-23.094,9.365-24.641,21.784
	c-1.7,13.604,7.98,26.053,21.585,27.752c1.031,0.129,2.076,0.195,3.106,0.195c12.5,0,23.101-9.365,24.65-21.785
	c0.819-6.575-0.976-13.088-5.06-18.338C143.779,53.131,137.908,49.787,131.329,48.967z"/>
<path fill="#CC2929" d="M126.229,97.248c13.633,1.702,26.056-7.968,27.756-21.591c1.701-13.625-7.965-26.05-21.596-27.751
	c-13.633-1.703-26.045,7.967-27.745,21.59C102.943,83.12,112.595,95.547,126.229,97.248z"/>
<path d="M75.945,136.489c2.009,3.157,4.051,6.242,6.091,9.223c7.368-4.102,16.541-7.636,28.487-6.144
	c7.745,0.967,18.527,5.431,26.497,12.836c2.75-2.435,5.523-4.958,8.283-7.568c-7.842-7.381-19.015-14.316-33.311-16.102
	C97.574,126.934,85.487,131.078,75.945,136.489z"/>
<path d="M87.357,151.017c2.365,3.314,4.648,6.434,6.782,9.334c3.921-3.002,9.078-3.601,13.867-3.002
	c4.751,0.595,10.858,3.06,13.046,6.344c2.813-2.322,5.829-4.831,8.979-7.512c-4.6-3.944-11.128-8.612-20.645-9.8
	C99.977,145.207,92.873,148.267,87.357,151.017z"/>
<path d="M114.004,168.643c-0.091-0.335-0.222-0.654-0.358-0.969c-0.007-0.005-0.012-0.007-0.016-0.009
	c0.002-0.004,0.004-0.006,0.008-0.01c-1.02-2.348-3.232-4.133-6.012-4.479c-2.638-0.331-5.111,0.713-6.696,2.547
	c-0.237,0.275-0.447,0.569-0.642,0.876c-0.197,0.312-0.354,0.648-0.501,0.992c-0.259,0.604-0.468,1.241-0.555,1.927
	c-0.176,1.414,0.092,2.777,0.675,3.987c0.481,0.999,1.181,1.881,2.062,2.585c1.066,0.855,2.376,1.45,3.847,1.635
	c0.81,0.102,1.594,0.041,2.355-0.1c2.382-0.441,4.387-1.972,5.388-4.118c0.311-0.661,0.553-1.36,0.651-2.121
	C114.323,170.439,114.238,169.516,114.004,168.643z"/>
<path d="M229.816,73.928c-1.489-6.021-15.62-8.173-37.484-3.929c-5.081,0.988-9.649,2.387-13.672,3.955
	c-5.862-24.915-26.64-44.795-53.485-48.148c-2.639-0.33-5.264-0.49-7.859-0.49c-31.308,0-58.522,23.376-62.5,55.228
	c-0.083,0.663-0.113,1.357-0.152,2.049c-0.113,2.012-0.036,4.133,0.199,6.332c-4.396,0.2-9.26,0.798-14.447,2.033
	c-21.192,5.051-32.906,12.675-31.8,18.639c1.106,5.965,18.022,10.919,32.527,6.663c5.743-1.685,12.4-5.119,18.481-8.804
	c0.374,0.993,0.76,1.986,1.169,2.981c0.058,0.137,0.112,0.274,0.17,0.413c1.327,3.208,2.834,6.424,4.453,9.624
	c1.782,3.524,3.708,7.024,5.735,10.473c9.287-5.356,20.577-9.032,33.488-9.032c2.818,0,5.717,0.174,8.688,0.548
	c16.444,2.054,29.246,9.344,38.533,18.23c2.972-3.018,5.862-6.106,8.583-9.253c3.253-3.764,6.273-7.599,8.923-11.464
	c0.117-0.167,0.229-0.334,0.341-0.504c0.85-1.254,1.667-2.511,2.436-3.771c0.814-1.34,1.562-2.666,2.269-3.987
	c2.906-5.423,4.882-10.677,5.491-15.552c0.119-0.954,0.191-1.901,0.248-2.846c7.579,0.972,15.774,1.459,22.186,0.552
	C217.644,91.706,231.306,79.95,229.816,73.928z M162.035,77.854c-2.147,17.202-13.312-4.218-32.72-6.237
	c-14.54-1.515-37.165,16.43-34.839-2.197c2.145-17.201,16.848-29.826,33.752-29.827c1.4,0,2.815,0.087,4.24,0.266
	C151.099,42.183,164.361,59.229,162.035,77.854z"/>
<circle fill="#FFFFFF" cx="123.911" cy="63.189" r="4.821"/>
<circle fill="#FFFFFF" cx="137.437" cy="62.292" r="6.132"/>
<g>
	<path d="M112.742,7.087c-1.827-3.152-5.335-5.156-9.207-4.827c-5.344,0.448-9.302,5.15-8.852,10.495
		c0.454,5.338,5.151,9.3,10.49,8.843c3.5-0.292,6.401-2.407,7.866-5.336"/>
	<path d="M127.92,31.118l-7.785-3.378c1.361-3.137,1.333-6.416-0.073-8.561c-1.631-2.486-4.908-3.009-7.369-3.009l0.049-9.084
		c6.432,0,11.52,3.028,14.414,7.438C130.158,19.1,130.443,25.302,127.92,31.118z"/>
</g>
</svg>
