<?xml version="1.0" encoding="utf-8"?>
<!-- Generator: Adobe Illustrator 16.0.0, SVG Export Plug-In . SVG Version: 6.00 Build 0)  -->
<!DOCTYPE svg PUBLIC "-//W3C//DTD SVG 1.1//EN" "http://www.w3.org/Graphics/SVG/1.1/DTD/svg11.dtd">
<svg version="1.1" id="Layer_1" xmlns="http://www.w3.org/2000/svg" xmlns:xlink="http://www.w3.org/1999/xlink" x="0px" y="0px"
	 width="240px" height="180px" viewBox="0 0 240 180" enable-background="new 0 0 240 180" xml:space="preserve">
<path d="M126.923,10.022c-0.847-5.214-5.763-8.744-10.978-7.896c-5.207,0.851-8.74,5.764-7.888,10.973
	c0.553,3.414,2.851,6.102,5.837,7.318c0.648,5.506,1.502,12.625,1.99,16.128l8.951-1.247c-0.469-3.373-1.312-10.402-1.955-15.869
	C125.838,17.396,127.539,13.8,126.923,10.022z"/>
<path d="M80.906,137.097c1.979,3.109,3.989,6.148,5.998,9.084c7.256-4.039,16.289-7.521,28.055-6.052
	c7.629,0.952,18.248,5.351,26.098,12.642c2.708-2.396,5.438-4.883,8.157-7.454c-7.723-7.268-18.727-14.099-32.806-15.855
	C102.209,127.687,90.303,131.768,80.906,137.097z"/>
<path d="M92.145,151.403c2.33,3.265,4.58,6.337,6.68,9.194c3.861-2.957,8.939-3.547,13.658-2.957
	c4.678,0.586,10.693,3.015,12.848,6.247c2.77-2.287,5.74-4.758,8.843-7.397c-4.53-3.885-10.96-8.481-20.333-9.65
	C104.574,145.683,97.577,148.696,92.145,151.403z"/>
<path d="M118.387,168.764c-0.09-0.33-0.216-0.645-0.351-0.955c-0.009-0.004-0.013-0.006-0.017-0.008
	c0.002-0.004,0.004-0.006,0.008-0.01c-1.004-2.311-3.182-4.07-5.92-4.411c-2.6-0.327-5.035,0.701-6.594,2.507
	c-0.234,0.271-0.443,0.562-0.634,0.863c-0.192,0.308-0.349,0.639-0.493,0.978c-0.256,0.596-0.461,1.222-0.547,1.897
	c-0.174,1.393,0.09,2.735,0.666,3.927c0.471,0.984,1.162,1.854,2.029,2.548c1.05,0.841,2.34,1.428,3.788,1.609
	c0.799,0.099,1.569,0.04,2.318-0.099c2.347-0.434,4.321-1.941,5.309-4.057c0.306-0.65,0.544-1.339,0.64-2.089
	C118.703,170.532,118.619,169.623,118.387,168.764z"/>
<path fill="#CC2929" d="M136.345,49.854c-13.427-1.677-25.651,7.847-27.326,21.264c-0.483,3.877-0.192,9.232,3.149,15.383
	c4.703-5.105,10.574-10.859,20.567-9.479c9.924,1.371,17.432,7.508,20.592,11.247c2.454-3.151,3.876-7.797,4.286-11.082
	C159.289,63.768,149.77,51.53,136.345,49.854z M137.758,62.241c-0.088,0.693-0.309,1.334-0.593,1.938
	c-0.915,1.961-2.747,3.359-4.925,3.762c-0.694,0.13-1.409,0.184-2.15,0.092c-1.344-0.169-2.539-0.712-3.515-1.493
	c-0.804-0.644-1.444-1.449-1.882-2.362c-0.533-1.105-0.778-2.351-0.618-3.643c0.079-0.627,0.271-1.208,0.508-1.761
	c0.134-0.314,0.278-0.62,0.457-0.906c0.177-0.28,0.37-0.549,0.589-0.801c1.445-1.675,3.705-2.628,6.116-2.325
	c2.54,0.316,4.561,1.947,5.492,4.092c-0.004,0.004-0.007,0.004-0.007,0.009c0.003,0.002,0.007,0.004,0.014,0.008
	c0.125,0.288,0.243,0.579,0.326,0.886C137.786,60.532,137.863,61.376,137.758,62.241z M149.983,68.058
	c-0.073,0.576-0.257,1.109-0.493,1.611c-0.762,1.63-2.286,2.793-4.096,3.129c-0.577,0.106-1.173,0.152-1.789,0.075
	c-1.117-0.14-2.111-0.592-2.922-1.241c-0.668-0.536-1.202-1.206-1.565-1.965c-0.444-0.92-0.647-1.955-0.515-3.029
	c0.066-0.521,0.227-1.004,0.423-1.465c0.111-0.261,0.231-0.516,0.381-0.754c0.146-0.232,0.308-0.455,0.488-0.664
	c1.202-1.395,3.082-2.187,5.087-1.935c2.112,0.263,3.793,1.618,4.567,3.401c-0.003,0.004-0.004,0.006-0.006,0.009
	c0.003,0.001,0.006,0.003,0.012,0.006c0.104,0.239,0.202,0.481,0.271,0.737C150.007,66.636,150.071,67.338,149.983,68.058z"/>
<path d="M204.093,79.567c-9.14-8.617-18.689-8.029-22.652-6.485c-5.773-24.537-25.612-41.69-52.051-44.993
	c-2.599-0.324-5.185-0.482-7.74-0.482c-30.835,0-57.636,23.022-61.555,54.391c-0.081,0.653-0.112,1.337-0.149,2.019
	c-0.111,1.981-0.036,4.069,0.195,6.236c-4.328,0.197-14.904-1.784-24.787,9.435s-15.628,46.899-6.488,46.899
	c13.406,0,15.146-42.471,35.965-38.083c0,0,0.748,1.955,1.15,2.937c0.058,0.135,0.111,0.27,0.168,0.406
	c1.307,3.16,2.791,6.326,4.386,9.479c1.755,3.471,3.652,6.918,5.647,10.313c9.146-5.274,20.266-8.895,32.981-8.895
	c2.776,0,5.632,0.172,8.558,0.54c16.195,2.021,28.804,9.202,37.949,17.953c2.927-2.972,5.773-6.014,8.454-9.113
	c3.204-3.705,6.178-7.482,8.788-11.289c0.115-0.165,0.226-0.329,0.335-0.496c0.838-1.235,1.643-2.473,2.399-3.714
	c0.802-1.319,1.539-2.625,2.234-3.928c2.862-5.341,4.809-10.514,5.408-15.315c0.117-0.939,0.188-1.873,0.244-2.804
	c25.521,3.097,16.382,41.137,27.089,39.569C221.328,132.58,213.233,88.186,204.093,79.567z M165.437,78.96
	c-2.098,16.801-13.002-4.12-31.959-6.093c-14.201-1.479-36.299,16.046-34.027-2.146c2.096-16.8,16.455-29.132,32.966-29.132
	c1.368,0,2.749,0.086,4.142,0.26C154.755,44.118,167.708,60.769,165.437,78.96z"/>
</svg>
