<?xml version="1.0" encoding="utf-8"?>
<!-- Generator: Adobe Illustrator 16.0.0, SVG Export Plug-In . SVG Version: 6.00 Build 0)  -->
<!DOCTYPE svg PUBLIC "-//W3C//DTD SVG 1.1//EN" "http://www.w3.org/Graphics/SVG/1.1/DTD/svg11.dtd">
<svg version="1.1" id="Layer_1" xmlns="http://www.w3.org/2000/svg" xmlns:xlink="http://www.w3.org/1999/xlink" x="0px" y="0px"
	 width="240px" height="180px" viewBox="0 0 240 180" enable-background="new 0 0 240 180" xml:space="preserve">
<path fill="#CC2929" d="M99.971,46.827c-12.941-0.323-23.697,9.904-24.021,22.852c-0.326,12.949,9.904,23.693,22.845,24.016
	c12.941,0.326,23.699-9.89,24.023-22.839C123.142,57.905,112.91,47.153,99.971,46.827z M95.461,75
	c0.668,2.421-0.754,4.923-3.176,5.59c-2.42,0.666-4.923-0.754-5.588-3.177c-0.668-2.419,0.755-4.921,3.176-5.588
	C92.293,71.158,94.795,72.58,95.461,75z M94.549,62.066c0.849,3.079-0.96,6.261-4.039,7.108c-3.078,0.848-6.26-0.96-7.107-4.039
	c-0.848-3.08,0.961-6.261,4.037-7.109C90.52,57.18,93.701,58.987,94.549,62.066z"/>
<path d="M135.041,135.533c3.514-0.328,6.98-0.713,10.359-1.142c-0.271-7.945-1.291-18.162,5.102-27.542
	c4.143-6.081,10.527-15.206,20.168-18.708c-0.857-3.354-1.783-6.767-2.785-10.205c-9.565,3.404-18.191,11.793-25.84,23.019
	C134.331,112.276,134.607,125.2,135.041,135.533z"/>
<path d="M152.139,132.208c3.798-0.558,7.398-1.131,10.75-1.674c-0.832-4.582,0.884-9.165,3.447-12.925
	c2.543-3.73,7.238-7.792,10.934-8.215c-0.738-3.359-1.545-6.969-2.439-10.765c-5.287,2.162-12.012,5.631-17.102,13.104
	C152.695,119.122,152.205,126.398,152.139,132.208z"/>
<path d="M178.391,117.438c-0.32-0.068-0.645-0.096-0.967-0.116c-0.008,0.004-0.012,0.007-0.014,0.009
	c-0.004-0.003-0.004-0.006-0.004-0.011c-2.408-0.154-4.859,0.933-6.346,3.116c-1.413,2.071-1.602,4.595-0.744,6.713
	c0.127,0.317,0.285,0.621,0.457,0.916c0.178,0.3,0.393,0.576,0.617,0.848c0.396,0.478,0.84,0.926,1.379,1.295
	c1.109,0.756,2.369,1.118,3.635,1.149c1.045,0.027,2.088-0.181,3.057-0.616c1.176-0.528,2.238-1.37,3.027-2.524
	c0.432-0.636,0.719-1.32,0.928-2.02c0.656-2.188,0.234-4.529-1.137-6.292c-0.42-0.545-0.902-1.049-1.5-1.458
	C180.035,117.943,179.223,117.616,178.391,117.438z"/>
<g>
	<path d="M102.744,136.735c1.023,0.113,2.054,0.216,3.097,0.301c0.143,0.01,0.285,0.024,0.432,0.035
		c3.36,0.267,6.808,0.386,10.29,0.405c3.835,0.022,7.715-0.089,11.594-0.306c-5.112-36.656,15.491-66.994,40.003-74.699
		c-1.81-4.349-3.786-8.532-5.953-12.418c-0.092-0.17-0.187-0.335-0.283-0.502c-0.708-1.253-1.431-2.479-2.179-3.666
		c-0.797-1.26-1.743-2.379-2.441-3.619c-11.328-20.12-69.818-28.728-92.998-3.228c-23.178,25.5-12.715,73.11,13.049,90.151
		c0.537,0.355,1.123,0.679,1.704,1.01c1.688,0.96,3.556,1.808,5.561,2.557 M100.048,38.986c16.826,0.595-2.947,12.852-3.249,31.247
		c-0.226,13.781,19.062,33.547,0.843,32.902c-16.825-0.592-30.294-13.356-31.734-29.233c-0.12-1.315-0.155-2.651-0.104-4.004
		C66.465,52.207,81.828,38.342,100.048,38.986z"/>
	<path d="M167.129,62.472C168.644,66.109,165.838,58.681,167.129,62.472L167.129,62.472z"/>
</g>
<path d="M210.639,50.186c0.959,6.552-12.243,13.912-29.486,16.437c-17.244,2.525-31.016-0.962-32.961-7.292
	c-9.75-31.74,12.234-23.342,33.933-20.915C199.443,40.352,209.678,43.633,210.639,50.186z"/>
<ellipse transform="matrix(-0.7665 0.6423 -0.6423 -0.7665 282.6893 186.9188)" cx="107.365" cy="144.849" rx="12.254" ry="32.695"/>
<path d="M127.978,13.971"/>
<path d="M32.797,74.344c-3.973,3.128-4.647,8.884-1.517,12.856c3.128,3.964,8.882,4.643,12.848,1.512
	c2.603-2.047,3.786-5.219,3.419-8.284c4.309-3.099,9.874-7.118,12.58-9.152l-5.198-6.916c-2.606,1.958-8.101,5.926-12.38,9.001
	C39.475,71.831,35.674,72.075,32.797,74.344z"/>
</svg>
