<?xml version="1.0" encoding="utf-8"?>
<!-- Generator: Adobe Illustrator 16.0.0, SVG Export Plug-In . SVG Version: 6.00 Build 0)  -->
<!DOCTYPE svg PUBLIC "-//W3C//DTD SVG 1.1//EN" "http://www.w3.org/Graphics/SVG/1.1/DTD/svg11.dtd">
<svg version="1.1" id="Layer_1" xmlns="http://www.w3.org/2000/svg" xmlns:xlink="http://www.w3.org/1999/xlink" x="0px" y="0px"
	 width="240px" height="180px" viewBox="0 0 240 180" enable-background="new 0 0 240 180" xml:space="preserve">
<path fill="#CC2929" d="M124.913,97.318c13.632,1.703,26.055-7.967,27.755-21.589c1.701-13.624-7.965-26.049-21.595-27.75
	c-13.632-1.704-26.044,7.966-27.745,21.59C101.627,83.192,111.278,95.618,124.913,97.318z"/>
<circle fill="#FFFFFF" cx="123.655" cy="63.262" r="4.821"/>
<circle fill="#FFFFFF" cx="136.121" cy="63.425" r="6.131"/>
<path d="M106.563,7.344c-1.827-3.151-5.335-5.155-9.207-4.826c-5.343,0.448-9.302,5.149-8.852,10.495
	c0.454,5.337,5.151,9.299,10.49,8.842c3.5-0.292,6.401-2.406,7.865-5.336"/>
<path d="M74.975,136.234c2.011,3.156,4.051,6.242,6.091,9.223c7.366-4.102,16.539-7.636,28.485-6.145
	c7.745,0.967,18.527,5.433,26.497,12.836c2.75-2.434,5.522-4.958,8.283-7.568c-7.842-7.38-19.015-14.314-33.31-16.1
	C96.604,126.68,84.516,130.823,74.975,136.234z"/>
<path d="M86.385,150.761c2.366,3.313,4.651,6.434,6.783,9.335c3.92-3.003,9.076-3.602,13.868-3.003
	c4.75,0.595,10.856,3.061,13.044,6.343c2.812-2.322,5.829-4.83,8.979-7.511c-4.6-3.944-11.128-8.611-20.644-9.798
	C99.006,144.952,91.902,148.012,86.385,150.761z"/>
<path d="M113.031,168.387c-0.091-0.336-0.22-0.655-0.356-0.97c-0.008-0.004-0.012-0.006-0.017-0.008
	c0.002-0.005,0.004-0.007,0.008-0.01c-1.019-2.347-3.231-4.134-6.011-4.479c-2.639-0.331-5.112,0.713-6.695,2.546
	c-0.238,0.275-0.45,0.569-0.644,0.876c-0.196,0.312-0.354,0.648-0.5,0.992c-0.26,0.605-0.469,1.241-0.556,1.927
	c-0.176,1.415,0.092,2.777,0.676,3.987c0.479,1,1.18,1.882,2.06,2.586c1.067,0.854,2.376,1.45,3.847,1.635
	c0.811,0.101,1.594,0.04,2.354-0.101c2.382-0.44,4.388-1.971,5.39-4.118c0.311-0.66,0.552-1.359,0.649-2.121
	C113.352,170.183,113.267,169.259,113.031,168.387z"/>
<path d="M121.741,31.375l-7.785-3.378c1.361-3.137,1.333-6.416-0.073-8.56c-1.631-2.487-4.908-3.009-7.368-3.009l0.048-9.085
	c6.432,0,11.52,3.029,14.414,7.439C123.979,19.356,124.265,25.559,121.741,31.375z"/>
<path d="M211.485,120.738c23.333-0.53,12.728-50.1,1.591-53.68c-11.136-3.581-32.174,5.075-36.196,6.642
	c-5.862-24.913-26.64-44.792-53.483-48.146c-2.639-0.33-5.264-0.491-7.859-0.491c-31.307,0-58.52,23.377-62.498,55.227
	c-0.083,0.663-0.114,1.357-0.151,2.05c-0.114,2.012-0.037,4.131,0.198,6.33c-4.395,0.201-23.606,4.848-28.794,6.084
	c-21.19,5.051-12.727,48.737,6.894,48.763c19.621,0.024-6.324-23.257,8.182-27.513c5.74-1.684,12.399-5.117,18.479-8.803
	c0.375,0.992,0.76,1.985,1.168,2.981c0.058,0.137,0.113,0.275,0.171,0.413c1.327,3.207,2.833,6.424,4.453,9.623
	c1.781,3.524,3.708,7.024,5.734,10.474c9.287-5.357,20.576-9.032,33.487-9.032c2.819,0,5.718,0.174,8.689,0.547
	c16.443,2.054,29.245,9.345,38.531,18.23c2.972-3.018,5.861-6.106,8.583-9.253c3.253-3.764,6.272-7.598,8.923-11.463
	c0.117-0.168,0.229-0.334,0.341-0.504c0.851-1.255,1.668-2.511,2.437-3.77c0.813-1.341,1.562-2.666,2.268-3.988
	c2.906-5.423,4.883-10.676,5.492-15.552c0.118-0.953,0.19-1.9,0.247-2.846c7.578,0.972,15.774,1.459,22.186,0.552
	C215.862,91.452,188.152,121.269,211.485,120.738z M160.255,77.603c-2.146,17.201-16.85,29.826-33.756,29.826
	c-1.404,0-2.819-0.087-4.246-0.266c-18.624-2.325-31.88-19.37-29.556-37.996c2.146-17.199,16.847-29.824,33.751-29.826
	c1.4,0,2.815,0.087,4.241,0.266C149.319,41.932,162.581,58.978,160.255,77.603z"/>
<path fill="#FFFFFF" d="M142.252,86.336c-1.429,1.524-5.753-4.773-14.343-4.773c-8.59,0-13.53,6.32-15.554,4.983
	s6.963-11.598,15.554-11.598C136.499,74.948,143.681,84.812,142.252,86.336z"/>
</svg>
