<?xml version="1.0" encoding="utf-8"?>
<!-- Generator: Adobe Illustrator 16.0.0, SVG Export Plug-In . SVG Version: 6.00 Build 0)  -->
<!DOCTYPE svg PUBLIC "-//W3C//DTD SVG 1.1//EN" "http://www.w3.org/Graphics/SVG/1.1/DTD/svg11.dtd">
<svg version="1.1" id="Layer_1" xmlns="http://www.w3.org/2000/svg" xmlns:xlink="http://www.w3.org/1999/xlink" x="0px" y="0px"
	 width="240px" height="180px" viewBox="0 0 240 180" enable-background="new 0 0 240 180" xml:space="preserve">
<path fill="#CC2929" d="M128.478,63.544c-0.029-12.946-10.547-23.418-23.498-23.388c-12.953,0.027-23.414,10.546-23.384,23.491
	c0.028,12.946,10.533,23.419,23.485,23.391C118.036,87.009,128.506,76.488,128.478,63.544z M100.192,59.806
	c-2.402,0.733-4.941-0.62-5.675-3.022c-0.731-2.401,0.62-4.942,3.023-5.674c2.4-0.733,4.94,0.621,5.673,3.022
	C103.946,56.533,102.594,59.073,100.192,59.806z M113.097,58.54c-3.055,0.932-6.285-0.789-7.217-3.843
	c-0.932-3.054,0.789-6.284,3.844-7.215c3.055-0.932,6.285,0.789,7.217,3.842C117.872,54.378,116.151,57.608,113.097,58.54z"/>
<path d="M137.692,133.865c3.514-0.328,6.98-0.713,10.358-1.142c-0.271-7.945-1.29-18.162,5.102-27.542
	c4.144-6.081,10.528-15.206,20.168-18.708c-0.857-3.354-1.783-6.767-2.785-10.205c-9.565,3.404-18.19,11.793-25.839,23.019
	C136.981,110.608,137.258,123.532,137.692,133.865z"/>
<path d="M154.79,130.541c3.797-0.558,7.397-1.131,10.749-1.674c-0.831-4.582,0.884-9.165,3.447-12.925
	c2.543-3.73,7.239-7.792,10.934-8.215c-0.737-3.359-1.545-6.969-2.438-10.765c-5.287,2.162-12.012,5.631-17.102,13.104
	C155.346,117.455,154.856,124.731,154.79,130.541z"/>
<path d="M181.042,115.77c-0.321-0.068-0.645-0.096-0.968-0.116c-0.007,0.004-0.011,0.007-0.014,0.009
	c-0.003-0.003-0.004-0.006-0.004-0.011c-2.407-0.154-4.859,0.933-6.346,3.116c-1.413,2.071-1.601,4.595-0.744,6.713
	c0.128,0.317,0.285,0.621,0.458,0.916c0.178,0.3,0.392,0.576,0.617,0.848c0.396,0.478,0.839,0.926,1.378,1.295
	c1.11,0.756,2.369,1.118,3.636,1.149c1.045,0.027,2.087-0.181,3.057-0.616c1.175-0.528,2.238-1.37,3.026-2.524
	c0.433-0.636,0.72-1.32,0.929-2.02c0.656-2.188,0.233-4.529-1.137-6.292c-0.421-0.545-0.902-1.049-1.5-1.458
	C182.686,116.275,181.874,115.949,181.042,115.77z"/>
<path d="M47.243,42.871c-3.43,0.177-6.62,2.257-8.01,5.647c-1.923,4.676,0.318,10.021,4.996,11.942
	c4.674,1.916,10.018-0.321,11.932-4.997c1.261-3.062,0.734-6.406-1.092-8.895"/>
<path d="M73.935,40.477l-6.183,5.078c-2.046-2.491-4.81-3.879-7.213-3.621c-2.788,0.299-4.636,2.823-5.694,4.887l-7.602-3.949
	c2.768-5.396,7.498-8.362,12.443-8.892C64.815,33.429,70.142,35.858,73.935,40.477z"/>
<g>
	<path d="M106.312,135.068c0.994,0.113,1.993,0.216,3.005,0.301c0.14,0.01,0.278,0.024,0.419,0.035
		c3.263,0.267,6.608,0.386,9.99,0.405c3.723,0.022,7.488-0.089,11.253-0.306c-4.963-36.656,15.037-66.994,38.831-74.699
		c-1.757-4.349-3.675-8.532-5.777-12.418c-0.09-0.17-0.182-0.335-0.276-0.502c-0.687-1.253-1.389-2.479-2.115-3.666
		c-0.773-1.26-1.691-2.379-2.369-3.619c-10.997-20.12-75.587-40.75-93.256,4.345c-0.915,2.334-2.677,4.205-3.794,6.382
		c-13.47,26.267-5.566,59.155,19.443,76.196c0.521,0.355,1.09,0.679,1.654,1.01c1.639,0.96,3.451,1.808,5.396,2.557 M136.839,70.916
		c-2.025,16.218-12.551-3.977-30.85-5.881c-13.709-1.427-35.041,15.49-32.848-2.071c2.021-16.217,15.885-28.121,31.822-28.122
		c1.32,0,2.654,0.082,3.998,0.25C126.528,37.283,139.032,53.354,136.839,70.916z"/>
	<path d="M169.81,60.804C171.279,64.442,168.558,57.013,169.81,60.804L169.81,60.804z"/>
</g>
<path d="M213.289,48.518c0.96,6.552-12.243,13.912-29.485,16.437c-17.244,2.525-31.016-0.962-32.961-7.292
	c-9.751-31.74,12.234-23.342,33.932-20.915C202.094,38.684,212.329,41.965,213.289,48.518z"/>
<ellipse transform="matrix(-0.7665 0.6422 -0.6422 -0.7665 286.3001 182.2751)" cx="110.016" cy="143.181" rx="12.254" ry="32.695"/>
<path d="M135.331,23.262"/>
</svg>
