<?xml version="1.0" encoding="utf-8"?>
<!-- Generator: Adobe Illustrator 16.0.4, SVG Export Plug-In . SVG Version: 6.00 Build 0)  -->
<!DOCTYPE svg PUBLIC "-//W3C//DTD SVG 1.1//EN" "http://www.w3.org/Graphics/SVG/1.1/DTD/svg11.dtd">
<svg version="1.1" id="Layer_1" xmlns="http://www.w3.org/2000/svg" xmlns:xlink="http://www.w3.org/1999/xlink" x="0px" y="0px"
	 width="271.5px" height="228.5px" viewBox="0 0 271.5 228.5" enable-background="new 0 0 271.5 228.5" xml:space="preserve">
<g>
	<path fill="none" d="M148.273,73.265c-1.066-0.134-2.147-0.202-3.213-0.202c-12.942,0.001-23.914,9.699-25.517,22.559
		c-1.759,14.087,8.266,26.978,22.353,28.736c1.065,0.135,2.148,0.202,3.216,0.202c12.943,0,23.922-9.698,25.525-22.559
		c0.85-6.808-1.01-13.551-5.239-18.988C161.166,77.578,155.087,74.115,148.273,73.265z"/>
	<g>
		<path fill="#CC2929" d="M142.992,123.261c14.116,1.763,26.981-8.25,28.742-22.357c1.762-14.108-8.248-26.975-22.362-28.737
			c-14.117-1.765-26.971,8.249-28.732,22.357C118.88,108.631,128.873,121.499,142.992,123.261z"/>
	</g>
	<path d="M139.307,30.285c-0.89-5.482-6.06-9.193-11.542-8.302c-5.475,0.895-9.19,6.059-8.293,11.537
		c0.581,3.588,2.997,6.416,6.137,7.694c0.682,5.79,1.579,13.275,2.093,16.958l9.413-1.312c-0.494-3.547-1.381-10.937-2.057-16.686
		C138.166,38.039,139.956,34.257,139.307,30.285z"/>
	<g>
		<path d="M90.923,163.895c2.081,3.269,4.195,6.465,6.308,9.552c7.63-4.249,17.127-7.909,29.499-6.364
			c8.02,1.002,19.185,5.626,27.438,13.291c2.846-2.519,5.72-5.134,8.576-7.837c-8.119-7.642-19.689-14.824-34.493-16.672
			C113.321,154,100.804,158.292,90.923,163.895z"/>
	</g>
	<g>
		<path d="M102.739,178.938c2.45,3.433,4.814,6.664,7.023,9.667c4.061-3.109,9.398-3.729,14.36-3.109
			c4.92,0.615,11.243,3.169,13.508,6.568c2.912-2.405,6.036-5.001,9.297-7.778c-4.764-4.083-11.522-8.916-21.378-10.146
			C115.809,172.923,108.452,176.091,102.739,178.938z"/>
	</g>
	<g>
		<path d="M130.332,197.191c-0.095-0.348-0.229-0.677-0.37-1.004c-0.008-0.003-0.012-0.005-0.016-0.009
			c0.002-0.003,0.004-0.005,0.008-0.009c-1.055-2.43-3.346-4.281-6.225-4.639c-2.732-0.342-5.294,0.738-6.935,2.638
			c-0.245,0.285-0.465,0.589-0.666,0.907c-0.202,0.323-0.366,0.671-0.519,1.026c-0.269,0.626-0.485,1.285-0.575,1.995
			c-0.183,1.465,0.095,2.878,0.699,4.129c0.496,1.036,1.222,1.95,2.134,2.68c1.104,0.885,2.461,1.501,3.983,1.691
			c0.838,0.104,1.65,0.042,2.438-0.104c2.467-0.456,4.544-2.041,5.581-4.265c0.321-0.685,0.573-1.408,0.673-2.197
			C130.665,199.05,130.576,198.093,130.332,197.191z"/>
	</g>
	<path d="M250.258,99.112c-1.543-6.235-16.173-8.463-38.815-4.068c-5.261,1.022-9.991,2.471-14.157,4.094
		C191.214,73.339,169.7,52.753,141.9,49.281c-2.732-0.341-5.45-0.508-8.139-0.508c-32.42,0-60.6,24.207-64.72,57.189
		c-0.085,0.687-0.118,1.406-0.156,2.122c-0.117,2.084-0.038,4.278,0.205,6.556c-4.552,0.208-9.589,0.826-14.961,2.105
		c-21.943,5.231-34.073,13.125-32.929,19.301c1.146,6.177,18.662,11.307,33.683,6.9c5.945-1.745,12.841-5.301,19.137-9.115
		c0.388,1.027,0.788,2.056,1.209,3.086c0.061,0.142,0.117,0.284,0.178,0.427c1.374,3.322,2.933,6.652,4.61,9.966
		c1.845,3.649,3.84,7.274,5.938,10.844c9.616-5.546,21.307-9.351,34.678-9.351c2.92,0,5.921,0.181,8.998,0.566
		c17.028,2.126,30.285,9.675,39.9,18.877c3.078-3.125,6.071-6.323,8.889-9.582c3.369-3.896,6.495-7.868,9.24-11.87
		c0.121-0.174,0.237-0.347,0.353-0.522c0.881-1.298,1.727-2.599,2.522-3.903c0.842-1.387,1.616-2.759,2.348-4.129
		c3.011-5.615,5.058-11.056,5.688-16.104c0.123-0.988,0.196-1.968,0.256-2.946c7.849,1.006,16.335,1.511,22.974,0.572
		C237.653,117.522,251.799,105.349,250.258,99.112z M180.069,103.179c-2.224,17.812-17.447,30.887-34.956,30.887
		c-1.454,0-2.92-0.09-4.396-0.275c-19.285-2.408-33.013-20.058-30.606-39.346c2.223-17.811,17.446-30.885,34.951-30.886
		c1.45,0,2.915,0.09,4.392,0.275C168.746,66.24,182.479,83.893,180.069,103.179z"/>
</g>
</svg>
