<?xml version="1.0" encoding="utf-8"?>
<!-- Generator: Adobe Illustrator 16.0.4, SVG Export Plug-In . SVG Version: 6.00 Build 0)  -->
<!DOCTYPE svg PUBLIC "-//W3C//DTD SVG 1.1//EN" "http://www.w3.org/Graphics/SVG/1.1/DTD/svg11.dtd">
<svg version="1.1" id="Layer_1" xmlns="http://www.w3.org/2000/svg" xmlns:xlink="http://www.w3.org/1999/xlink" x="0px" y="0px"
	 width="39.312px" height="29.957px" viewBox="0 0 39.312 29.957" enable-background="new 0 0 39.312 29.957" xml:space="preserve">
<g>
	<path fill="#FFFFFF" d="M21.397,8.333c-0.171-0.021-0.348-0.031-0.521-0.031c-2.099,0-3.877,1.572-4.136,3.656
		c-0.286,2.283,1.34,4.375,3.624,4.66c0.174,0.021,0.349,0.031,0.521,0.031c2.099,0,3.878-1.572,4.139-3.659
		c0.137-1.103-0.164-2.194-0.851-3.076C23.488,9.032,22.502,8.471,21.397,8.333z"/>
	<g>
		<path fill="#FFFFFF" d="M20.541,16.438c2.288,0.286,4.375-1.336,4.661-3.624c0.285-2.288-1.337-4.372-3.626-4.658
			c-2.288-0.286-4.373,1.338-4.658,3.624C16.633,14.067,18.253,16.154,20.541,16.438z"/>
	</g>
	<path fill="#FFFFFF" d="M19.945,1.366c-0.146-0.888-0.983-1.49-1.872-1.345c-0.888,0.145-1.49,0.981-1.344,1.87
		c0.094,0.582,0.485,1.041,0.994,1.247c0.111,0.938,0.258,2.152,0.34,2.749l1.526-0.212c-0.08-0.575-0.224-1.772-0.334-2.704
		C19.76,2.624,20.05,2.011,19.945,1.366z"/>
	<g>
		<path fill="#FFFFFF" d="M12.101,23.026c0.338,0.529,0.68,1.047,1.023,1.548c1.236-0.687,2.775-1.283,4.781-1.03
			c1.3,0.162,3.11,0.911,4.447,2.151c0.464-0.405,0.928-0.83,1.393-1.267c-1.316-1.24-3.193-2.404-5.592-2.705
			C15.731,21.421,13.703,22.117,12.101,23.026z"/>
	</g>
	<g>
		<path fill="#FFFFFF" d="M14.016,25.467c0.398,0.556,0.781,1.078,1.138,1.564c0.659-0.503,1.523-0.605,2.328-0.503
			c0.798,0.1,1.823,0.515,2.191,1.063c0.472-0.391,0.978-0.811,1.506-1.26c-0.771-0.663-1.867-1.447-3.466-1.647
			C16.135,24.488,14.942,25.004,14.016,25.467z"/>
	</g>
	<g>
		<path fill="#FFFFFF" d="M18.49,28.422c-0.017-0.055-0.037-0.107-0.061-0.159c-0.002,0-0.002,0-0.003-0.003
			c0.001-0.002,0.001-0.002,0.001-0.002c-0.172-0.394-0.543-0.697-1.008-0.752c-0.443-0.057-0.86,0.119-1.125,0.428
			c-0.04,0.045-0.076,0.095-0.108,0.147s-0.059,0.107-0.083,0.165c-0.044,0.103-0.079,0.209-0.093,0.324
			c-0.031,0.238,0.015,0.467,0.114,0.67c0.08,0.167,0.198,0.317,0.345,0.435c0.179,0.141,0.398,0.243,0.646,0.271
			c0.137,0.02,0.268,0.01,0.396-0.015c0.4-0.076,0.735-0.331,0.905-0.691c0.052-0.109,0.092-0.227,0.109-0.355
			C18.543,28.725,18.528,28.57,18.49,28.422z"/>
	</g>
	<path fill="#FFFFFF" d="M37.929,12.523c-0.248-1.011-2.62-1.371-6.289-0.658c-0.854,0.165-1.622,0.399-2.296,0.663
		c-0.984-4.182-4.473-7.519-8.979-8.083c-0.442-0.056-0.883-0.082-1.319-0.082c-5.255,0-9.823,3.924-10.491,9.27
		c-0.014,0.113-0.019,0.229-0.026,0.345c-0.019,0.34-0.005,0.694,0.034,1.062c-0.737,0.034-1.555,0.134-2.425,0.343
		c-3.558,0.847-5.523,2.128-5.338,3.128c0.187,1,3.025,1.833,5.46,1.119c0.963-0.283,2.081-0.86,3.102-1.479
		c0.063,0.167,0.128,0.334,0.196,0.501c0.011,0.021,0.02,0.047,0.029,0.068c0.222,0.54,0.476,1.078,0.747,1.617
		c0.299,0.592,0.623,1.179,0.963,1.758c1.559-0.899,3.453-1.517,5.622-1.517c0.473,0,0.959,0.028,1.458,0.093
		c2.76,0.344,4.909,1.567,6.468,3.061c0.5-0.508,0.985-1.025,1.442-1.553c0.545-0.635,1.052-1.278,1.498-1.925
		c0.019-0.029,0.038-0.056,0.055-0.086c0.144-0.208,0.28-0.42,0.41-0.633c0.136-0.225,0.262-0.445,0.382-0.67
		c0.486-0.909,0.818-1.793,0.921-2.61c0.021-0.16,0.032-0.318,0.042-0.478c1.272,0.164,2.647,0.246,3.725,0.093
		C35.888,15.507,38.179,13.536,37.929,12.523z M26.553,13.184c-0.361,2.886-2.829,5.006-5.667,5.006
		c-0.235,0-0.473-0.013-0.714-0.045c-3.126-0.389-5.351-3.25-4.96-6.377c0.359-2.887,2.827-5.006,5.665-5.007
		c0.235,0,0.473,0.016,0.712,0.045C24.715,7.195,26.943,10.057,26.553,13.184z"/>
</g>
</svg>
