<?xml version="1.0" encoding="utf-8"?>
<!-- Generator: Adobe Illustrator 17.0.0, SVG Export Plug-In . SVG Version: 6.00 Build 0)  -->
<!DOCTYPE svg PUBLIC "-//W3C//DTD SVG 1.1//EN" "http://www.w3.org/Graphics/SVG/1.1/DTD/svg11.dtd">
<svg version="1.1" id="Layer_1" xmlns="http://www.w3.org/2000/svg" xmlns:xlink="http://www.w3.org/1999/xlink" x="0px" y="0px"
	 width="80px" height="80px" viewBox="0 0 80 80" enable-background="new 0 0 80 80" xml:space="preserve">
<circle fill="#F1F1F1" cx="40.014" cy="39.839" r="39.014"/>
<g>
	<path fill="none" d="M43.587,28.219c-0.261-0.033-0.526-0.05-0.786-0.05c-3.17,0-5.857,2.375-6.249,5.525
		c-0.431,3.45,2.024,6.608,5.474,7.039c0.261,0.033,0.526,0.05,0.787,0.05c3.17,0,5.859-2.375,6.251-5.525
		c0.208-1.667-0.248-3.319-1.283-4.651C46.745,29.275,45.256,28.427,43.587,28.219z"/>
	<g>
		<circle fill="#E74C3C" cx="43.075" cy="34.207" r="6.305"/>
	</g>
	<path fill="#2D2D2D" d="M41.391,17.692c-0.217-1.342-1.484-2.251-2.826-2.033c-1.341,0.219-2.25,1.484-2.031,2.825
		c0.142,0.879,0.735,1.572,1.503,1.885c0.167,1.418,0.387,3.251,0.512,4.153l2.305-0.321c-0.121-0.869-0.338-2.679-0.504-4.086
		C41.111,19.591,41.55,18.665,41.391,17.692z"/>
	<g>
		<path fill="#2D2D2D" d="M29.54,50.416c0.51,0.801,1.027,1.583,1.545,2.34c1.868-1.04,4.195-1.938,7.225-1.559
			c1.964,0.246,4.699,1.378,6.721,3.255c0.697-0.617,1.401-1.258,2.1-1.919c-1.988-1.871-4.823-3.631-8.448-4.083
			C35.027,47.993,31.96,49.045,29.54,50.416z"/>
	</g>
	<g>
		<path fill="#2D2D2D" d="M32.435,54.101c0.6,0.841,1.18,1.632,1.72,2.367c0.995-0.762,2.302-0.913,3.517-0.762
			c1.205,0.15,2.753,0.776,3.308,1.608c0.713-0.589,1.478-1.225,2.277-1.905c-1.166-1-2.822-2.183-5.236-2.485
			C35.635,52.628,33.834,53.403,32.435,54.101z"/>
	</g>
	<g>
		<path fill="#2D2D2D" d="M39.193,58.571c-0.023-0.085-0.056-0.166-0.09-0.246c-0.002-0.001-0.003-0.001-0.004-0.002
			c0.001-0.001,0.001-0.001,0.002-0.002c-0.258-0.595-0.82-1.049-1.525-1.136c-0.67-0.083-1.296,0.181-1.699,0.646
			c-0.06,0.07-0.114,0.144-0.164,0.223c-0.05,0.079-0.089,0.165-0.127,0.251c-0.066,0.153-0.119,0.315-0.141,0.489
			c-0.045,0.359,0.023,0.705,0.172,1.011c0.122,0.254,0.3,0.478,0.523,0.656c0.27,0.216,0.602,0.368,0.975,0.415
			c0.205,0.025,0.404,0.01,0.597-0.025c0.605-0.112,1.113-0.5,1.367-1.044c0.079-0.168,0.14-0.344,0.165-0.538
			C39.274,59.027,39.252,58.793,39.193,58.571z"/>
	</g>
	<path fill="#2D2D2D" d="M68.565,34.549c-0.378-1.527-3.961-2.073-9.507-0.997c-1.288,0.25-2.448,0.606-3.468,1.003
		c-1.487-6.318-6.756-11.361-13.566-12.211c-0.67-0.083-1.335-0.125-1.993-0.125c-7.94,0-14.843,5.929-15.851,14.007
		c-0.021,0.168-0.028,0.344-0.039,0.519c-0.028,0.51-0.009,1.047,0.05,1.606c-1.115,0.051-2.349,0.202-3.664,0.516
		c-5.375,1.281-8.345,3.215-8.065,4.727c0.28,1.513,4.571,2.77,8.25,1.69c1.456-0.427,3.144-1.298,4.687-2.232
		c0.094,0.252,0.193,0.504,0.297,0.756c0.014,0.035,0.028,0.069,0.044,0.105c0.336,0.814,0.718,1.63,1.13,2.441
		c0.452,0.894,0.941,1.782,1.455,2.656c2.355-1.358,5.219-2.29,8.494-2.29c0.715,0,1.45,0.044,2.204,0.139
		c4.171,0.52,7.418,2.369,9.773,4.624c0.754-0.765,1.486-1.548,2.177-2.347c0.825-0.954,1.591-1.927,2.263-2.907
		c0.029-0.043,0.058-0.085,0.086-0.128c0.215-0.318,0.423-0.637,0.618-0.956c0.206-0.339,0.396-0.676,0.575-1.011
		c0.738-1.376,1.238-2.708,1.393-3.944c0.03-0.242,0.048-0.482,0.063-0.721c1.922,0.247,4.001,0.37,5.627,0.14
		C65.479,39.058,68.943,36.077,68.565,34.549z M51.375,35.546c-0.545,4.363-4.273,7.565-8.562,7.565
		c-0.356,0-0.715-0.022-1.077-0.067c-4.723-0.589-8.085-4.913-7.496-9.637c0.545-4.363,4.273-7.564,8.561-7.565
		c0.356,0,0.714,0.022,1.076,0.067C48.601,26.499,51.964,30.822,51.375,35.546z"/>
</g>
<g>
</g>
<g>
</g>
<g>
</g>
<g>
</g>
<g>
</g>
<g>
</g>
<g>
</g>
<g>
</g>
<g>
</g>
<g>
</g>
<g>
</g>
<g>
</g>
<g>
</g>
<g>
</g>
<g>
</g>
</svg>
