<?xml version="1.0" encoding="UTF-8" standalone="no"?>
<svg width="100px" height="93px" viewBox="0 0 100 93" version="1.1" xmlns="http://www.w3.org/2000/svg" xmlns:xlink="http://www.w3.org/1999/xlink">
    <defs></defs>
    <g id="Page-1" stroke="none" stroke-width="1" fill="none" fill-rule="evenodd">
        <g id="Occupancy-icons-(dragged)" transform="translate(-1.000000, 0.000000)" fill="#F90B32">
            <path d="M15.5859,0.1807 C20.9559,0.1807 25.3099,4.5347 25.3099,9.9047 C25.3099,15.2747 20.9559,19.6287 15.5859,19.6287 C10.2159,19.6287 5.8619,15.2747 5.8619,9.9047 C5.8619,4.5347 10.2159,0.1807 15.5859,0.1807" id="Fill-1"></path>
            <path d="M20.2268,21.8386 L10.7238,21.8386 C5.4198,21.8386 0.9998,26.2586 0.9998,31.5626 L0.9998,59.4086 C0.9998,61.8396 2.9888,64.0496 5.4198,64.2706 L5.4198,92.9996 L25.5308,92.9996 L25.5308,64.2706 C27.9618,64.0496 29.9508,62.0606 29.9508,59.4086 L29.9508,31.5626 C29.7298,26.2586 25.5308,21.8386 20.2268,21.8386" id="Fill-3"></path>
            <path d="M50.665,0.1807 C56.035,0.1807 60.389,4.5347 60.389,9.9047 C60.389,15.2747 56.035,19.6287 50.665,19.6287 C45.295,19.6287 40.941,15.2747 40.941,9.9047 C40.941,4.5347 45.295,0.1807 50.665,0.1807" id="Fill-4"></path>
            <path d="M55.3059,21.8386 L45.8029,21.8386 C40.4989,21.8386 36.0789,26.2586 36.0789,31.5626 L36.0789,59.4086 C36.0789,61.8396 38.0679,64.0496 40.4989,64.2706 L40.4989,92.9996 L60.6099,92.9996 L60.6099,64.2706 C63.0409,64.0496 65.0299,62.0606 65.0299,59.4086 L65.0299,31.5626 C64.8089,26.2586 60.6099,21.8386 55.3059,21.8386" id="Fill-5"></path>
            <path d="M85.744,0.1807 C91.114,0.1807 95.468,4.5347 95.468,9.9047 C95.468,15.2747 91.114,19.6287 85.744,19.6287 C80.374,19.6287 76.02,15.2747 76.02,9.9047 C76.02,4.5347 80.374,0.1807 85.744,0.1807" id="Fill-6"></path>
            <path d="M90.385,21.8386 L80.882,21.8386 C75.578,21.8386 71.158,26.2586 71.158,31.5626 L71.158,59.4086 C71.158,61.8396 73.147,64.0496 75.578,64.2706 L75.578,92.9996 L95.689,92.9996 L95.689,64.2706 C98.12,64.0496 100.109,62.0606 100.109,59.4086 L100.109,31.5626 C99.888,26.2586 95.689,21.8386 90.385,21.8386" id="Fill-7"></path>
        </g>
    </g>
</svg>