<?xml version="1.0" encoding="UTF-8" standalone="no"?>
<svg width="100px" height="94px" viewBox="0 0 100 94" version="1.1" xmlns="http://www.w3.org/2000/svg" xmlns:xlink="http://www.w3.org/1999/xlink">
    <defs></defs>
    <g id="Page-1" stroke="none" stroke-width="1" fill="none" fill-rule="evenodd">
        <g id="Occupancy-icons-(dragged)-4" transform="translate(-0.108900, 0.180800)">
            <path d="M15.5859,0.1807 C20.9559,0.1807 25.3099,4.5347 25.3099,9.9047 C25.3099,15.2747 20.9559,19.6287 15.5859,19.6287 C10.2159,19.6287 5.8619,15.2747 5.8619,9.9047 C5.8619,4.5347 10.2159,0.1807 15.5859,0.1807" id="Fill-1" fill="#CCCCCC"></path>
            <path d="M20.2268,21.8386 L10.7238,21.8386 C5.4198,21.8386 0.9998,26.2586 0.9998,31.5626 L0.9998,59.4086 C0.9998,61.8396 2.9888,64.0496 5.4198,64.2706 L5.4198,92.9996 L25.5308,92.9996 L25.5308,64.2706 C27.9618,64.0496 29.9508,62.0606 29.9508,59.4086 L29.9508,31.5626 C29.7298,26.2586 25.5308,21.8386 20.2268,21.8386" id="Fill-3" fill="#CCCCCC"></path>
            <path d="M50.665,0.1807 C56.035,0.1807 60.389,4.5347 60.389,9.9047 C60.389,15.2747 56.035,19.6287 50.665,19.6287 C45.295,19.6287 40.941,15.2747 40.941,9.9047 C40.941,4.5347 45.295,0.1807 50.665,0.1807" id="Fill-4" fill="#CCCCCC"></path>
            <path d="M55.3059,21.8386 L45.8029,21.8386 C40.4989,21.8386 36.0789,26.2586 36.0789,31.5626 L36.0789,59.4086 C36.0789,61.8396 38.0679,64.0496 40.4989,64.2706 L40.4989,92.9996 L60.6099,92.9996 L60.6099,64.2706 C63.0409,64.0496 65.0299,62.0606 65.0299,59.4086 L65.0299,31.5626 C64.8089,26.2586 60.6099,21.8386 55.3059,21.8386" id="Fill-5" fill="#CCCCCC"></path>
            <path d="M85.744,0.1807 C91.114,0.1807 95.468,4.5347 95.468,9.9047 C95.468,15.2747 91.114,19.6287 85.744,19.6287 C80.374,19.6287 76.02,15.2747 76.02,9.9047 C76.02,4.5347 80.374,0.1807 85.744,0.1807" id="Fill-6" fill="#CCCCCC"></path>
            <path d="M90.385,21.8386 L80.882,21.8386 C75.578,21.8386 71.158,26.2586 71.158,31.5626 L71.158,59.4086 C71.158,61.8396 73.147,64.0496 75.578,64.2706 L75.578,92.9996 L95.689,92.9996 L95.689,64.2706 C98.12,64.0496 100.109,62.0606 100.109,59.4086 L100.109,31.5626 C99.888,26.2586 95.689,21.8386 90.385,21.8386" id="Fill-7" fill="#CCCCCC"></path>
            <path d="M42.5908,74.5156 C42.5908,72.1956 43.3198,70.3546 44.7798,68.9946 C46.2378,67.6356 48.1618,66.9546 50.5498,66.9546 C53.0698,66.9546 55.0598,67.6356 56.5188,68.9946 C57.9778,70.3546 58.7078,72.1956 58.7078,74.5156 C58.7078,76.8376 57.9778,78.6946 56.5188,80.0866 C55.0598,81.4796 53.0698,82.1766 50.5498,82.1766 C48.1618,82.1766 46.2378,81.4796 44.7798,80.0866 C43.3198,78.6946 42.5908,76.8376 42.5908,74.5156 L42.5908,74.5156 Z M44.5808,60.3886 C44.2478,56.9416 44.4148,54.0066 45.0778,51.5846 C45.7398,49.1636 46.6528,47.0756 47.8148,45.3166 C48.9738,43.5606 50.3008,42.0346 51.7928,40.7406 C53.2858,39.4476 54.6788,38.2036 55.9718,37.0106 C57.2648,35.8166 58.3428,34.5726 59.2048,33.2796 C60.0668,31.9866 60.4978,30.4436 60.4978,28.6536 C60.4978,26.3326 59.8518,24.4746 58.5588,23.0816 C57.2648,21.6896 54.9598,20.9936 51.6448,20.9936 C50.5828,20.9936 49.4548,21.1096 48.2618,21.3416 C47.0688,21.5746 45.8738,21.9056 44.6798,22.3356 C43.4868,22.7676 42.3418,23.2656 41.2478,23.8276 C40.1538,24.3926 39.1738,24.9726 38.3128,25.5696 L33.3388,16.0186 C35.8588,14.2946 38.7608,12.8696 42.0438,11.7406 C45.3268,10.6136 49.2888,10.0496 53.9328,10.0496 C60.1658,10.0496 65.0398,11.5586 68.5568,14.5766 C72.0708,17.5946 73.8288,21.6566 73.8288,26.7636 C73.8288,30.1456 73.3818,32.9486 72.4868,35.1696 C71.5908,37.3926 70.4798,39.2826 69.1528,40.8406 C67.8258,42.3996 66.3678,43.7746 64.7768,44.9686 C63.1848,46.1626 61.7248,47.4406 60.3988,48.7986 C59.0708,50.1596 57.9448,51.7346 57.0168,53.5246 C56.0868,55.3156 55.6238,57.6036 55.6238,60.3886 L44.5808,60.3886 Z" id="Fill-8" fill="#666666"></path>
        </g>
    </g>
</svg>