<?xml version="1.0" encoding="utf-8"?>
<!-- Generator: Adobe Illustrator 20.0.0, SVG Export Plug-In . SVG Version: 6.00 Build 0)  -->
<svg version="1.1" id="Laag_1" xmlns="http://www.w3.org/2000/svg" xmlns:xlink="http://www.w3.org/1999/xlink" x="0px" y="0px"
	 viewBox="0 0 310.8 91.5" style="enable-background:new 0 0 310.8 91.5;" xml:space="preserve">
<style type="text/css">
	.st0{fill:#C52B2F;}
	.st1{fill:#FFFFFF;}
	.st2{font-family:'PTSans-Bold';}
	.st3{font-size:33px;}
</style>
<g>
	<rect class="st0" width="312" height="91.5"/>
	<text transform="matrix(1 0 0 1 116.3688 54.8173)" class="st1 st2 st3">Plan a route</text>
	<g>
		<path class="st1" d="M63.5,28.8c-0.4,0-0.8-0.1-1.2-0.1c-4.7,0-8.7,3.5-9.3,8.2c-0.6,5.1,3,9.8,8.1,10.5c0.4,0,0.8,0.1,1.2,0.1
			c4.7,0,8.7-3.5,9.3-8.2c0.3-2.5-0.4-4.9-1.9-6.9C68.2,30.4,66,29.1,63.5,28.8z"/>
		<g>
			<path class="st1" d="M61.6,47c5.1,0.6,9.8-3,10.5-8.1c0.9-7.3-6.8-13.7-15.2-8.8C50,37,54.3,46.1,61.6,47z"/>
		</g>
		<path class="st1" d="M60.2,13.2c-0.5-2.8-4.1-4.4-6.7-1.6c-1.4,2.5-0.2,4.9,1.7,5.6c0.2,2.1,0.6,4.8,0.8,6.2l3.4-0.5
			c-0.2-1.3-0.5-4-0.7-6.1C59.8,16,60.5,14.6,60.2,13.2z"/>
		<g>
			<path class="st1" d="M42.6,61.8c0.8,1.2,1.5,2.4,2.3,3.5c2.8-1.5,6.2-2.9,10.7-2.3c2.9,0.4,7,2,10,4.8c1-0.9,2.1-1.9,3.1-2.8
				c-3-2.8-7.2-5.4-12.6-6.1C50.8,58.2,46.2,59.7,42.6,61.8z"/>
		</g>
		<g>
			<path class="st1" d="M46.9,67.3c0.9,1.2,1.8,2.4,2.6,3.5c1.5-1.1,3.4-1.4,5.2-1.1c1.8,0.2,4.1,1.2,4.9,2.4
				c1.1-0.9,2.2-1.8,3.4-2.8c-1.7-1.5-4.2-3.2-7.8-3.7C51.7,65.1,49,66.2,46.9,67.3z"/>
		</g>
		<g>
			<path class="st1" d="M57,73.9c0-0.1-0.1-0.2-0.1-0.4c0,0,0,0,0,0c0,0,0,0,0,0c-0.4-0.9-1.2-1.6-2.3-1.7c-1-0.1-1.9,0.3-2.5,1
				c-0.1,0.1-0.2,0.2-0.2,0.3c-0.1,0.1-0.1,0.2-0.2,0.4c-0.1,0.2-0.2,0.5-0.2,0.7c-0.1,0.5,0,1,0.3,1.5c0.2,0.4,0.4,0.7,0.8,1
				c0.4,0.3,0.9,0.5,1.4,0.6c0.3,0,0.6,0,0.9,0c0.9-0.2,1.6-0.7,2-1.6c0.1-0.2,0.2-0.5,0.2-0.8C57.1,74.6,57.1,74.2,57,73.9z"/>
		</g>
		<path class="st1" d="M100.6,38.2c-0.6-2.3-5.9-3.1-14.1-1.5c-1.9,0.4-3.6,0.9-5.2,1.5c-2.2-9.4-10-16.9-20.2-18.1
			c-1-0.1-2-0.2-3-0.2c-11.8,0-22,8.8-23.5,20.8c0,0.3,0,0.5-0.1,0.8c0,0.8,0,1.6,0.1,2.4c-1.7,0.1-3.5,0.3-5.4,0.8
			c-8,1.9-12.4,4.8-12,7c0.4,2.2,6.8,4.1,12.3,2.5c2.2-0.6,4.7-1.9,7-3.3c0.1,0.4,0.3,0.7,0.4,1.1c0,0,0,0.1,0.1,0.2
			c0.5,1.2,1.1,2.4,1.7,3.6c0.7,1.3,1.4,2.6,2.2,3.9c3.5-2,7.8-3.4,12.6-3.4c1.1,0,2.2,0.1,3.3,0.2c6.2,0.8,11,3.5,14.5,6.9
			c1.1-1.1,2.2-2.3,3.2-3.5c1.2-1.4,2.4-2.9,3.4-4.3c0-0.1,0.1-0.1,0.1-0.2c0.3-0.5,0.6-0.9,0.9-1.4c0.3-0.5,0.6-1,0.9-1.5
			c1.1-2,1.8-4,2.1-5.9c0-0.4,0.1-0.7,0.1-1.1c2.9,0.4,5.9,0.6,8.4,0.2C96,44.9,101.2,40.5,100.6,38.2z M75.1,39.7
			c-0.8,6.5-6.3,11.2-12.7,11.2c-0.5,0-1.1,0-1.6-0.1c-7-0.9-12-7.3-11.1-14.3C50.4,30,56,25.3,62.3,25.3c0.5,0,1.1,0,1.6,0.1
			C70.9,26.2,75.9,32.7,75.1,39.7z"/>
	</g>
</g>
</svg>
