<?xml version="1.0" encoding="utf-8"?>
<!-- Generator: Adobe Illustrator 16.0.4, SVG Export Plug-In . SVG Version: 6.00 Build 0)  -->
<!DOCTYPE svg PUBLIC "-//W3C//DTD SVG 1.1//EN" "http://www.w3.org/Graphics/SVG/1.1/DTD/svg11.dtd">
<svg version="1.1" id="Layer_1" xmlns="http://www.w3.org/2000/svg" xmlns:xlink="http://www.w3.org/1999/xlink" x="0px" y="0px"
	 width="14.59px" height="14.715px" viewBox="2.562 2.438 14.59 14.715" enable-background="new 2.562 2.438 14.59 14.715"
	 xml:space="preserve">
<g>
	<path d="M2.87,13.582c1.072,0,2.144,0,3.376,0c0.125-1.186,0.234-2.225,0.363-3.446C7.684,10.059,8.72,9.983,9.867,9.9
		c0.088-1.104,0.164-2.064,0.257-3.22c1.005-0.127,2.038-0.257,3.458-0.437c0-1.094,0-2.233,0-3.374
		c0.992,0,1.995-0.079,2.968,0.054c0.248,0.034,0.404,0.739,0.603,1.136c-0.684,0-1.366,0-2.18,0
		c-0.121,1.145-0.234,2.188-0.363,3.417c-1.041,0.094-2.075,0.188-3.289,0.298c-0.076,1.103-0.149,2.136-0.229,3.276
		c-1.105,0.091-2.062,0.169-3.234,0.267c-0.12,0.986-0.244,2.017-0.393,3.246c-0.983,0.111-2.014,0.229-3.305,0.375
		c-0.033,0.729-0.066,1.472-0.1,2.215c-0.396-0.198-1.102-0.354-1.136-0.604C2.792,15.577,2.87,14.574,2.87,13.582z"/>
</g>
</svg>
