<?xml version="1.0" encoding="utf-8"?>
<!-- Generator: Adobe Illustrator 18.0.0, SVG Export Plug-In . SVG Version: 6.00 Build 0)  -->
<!DOCTYPE svg PUBLIC "-//W3C//DTD SVG 1.1//EN" "http://www.w3.org/Graphics/SVG/1.1/DTD/svg11.dtd">
<svg version="1.1" id="Layer_1" xmlns="http://www.w3.org/2000/svg" xmlns:xlink="http://www.w3.org/1999/xlink" x="0px" y="0px"
	  width="240px" height="180px" viewBox="0 0 240 187" enable-background="new 0 0 240 187" xml:space="preserve">
<path fill="#CC2929" d="M141.8,95.9c11.3-6.4,15.2-20.7,8.8-32c-6.4-11.3-20.7-15.2-32-8.8c-11.3,6.4-15.2,20.7-8.8,32
	C116.3,98.4,130.6,102.3,141.8,95.9z M131.2,69.4c-1.8-1.7-1.9-4.6-0.2-6.4c1.7-1.8,4.6-1.9,6.4-0.2c1.8,1.7,1.9,4.6,0.2,6.4
	C135.9,71.1,133,71.2,131.2,69.4z M138.6,80.1c-2.3-2.2-2.4-5.9-0.2-8.2s5.9-2.4,8.2-0.2c2.3,2.2,2.4,5.9,0.2,8.2
	C144.6,82.2,140.9,82.3,138.6,80.1z"/>
<path d="M85.1,138.5c2,2.9,4.1,5.7,6.1,8.5c6.8-4.1,15.2-10.1,26.5-9.1c7.3,0.6,18.4,1.7,26.2,8.4c2.5-2.4,5-4.9,7.5-7.4
	c-7.7-6.7-19.2-10-32.8-11.2C105,126.5,93.9,133.1,85.1,138.5z"/>
<path d="M96.4,151.8c2.4,3,4.6,5.9,6.7,8.5c3.6-3,8.4-3.7,12.9-3.4c4.5,0.4,10.3,2.5,12.5,5.5c2.6-2.3,5.3-4.8,8.2-7.4
	c-4.5-3.5-10.8-7.7-19.8-8.4C108.1,145.8,101.5,149,96.4,151.8z"/>
<path d="M122.2,167.4c-0.1-0.3-0.2-0.6-0.4-0.9c0,0,0,0,0,0c0,0,0,0,0,0c-1.1-2.2-3.2-3.8-5.8-4c-2.5-0.2-4.8,0.9-6.2,2.7
	c-0.2,0.3-0.4,0.6-0.6,0.8c-0.2,0.3-0.3,0.6-0.4,1c-0.2,0.6-0.4,1.2-0.4,1.8c-0.1,1.3,0.2,2.6,0.8,3.7c0.5,0.9,1.2,1.7,2,2.4
	c1,0.8,2.3,1.3,3.7,1.4c0.8,0.1,1.5,0,2.2-0.2c2.2-0.5,4.1-2,4.9-4.1c0.3-0.6,0.5-1.3,0.5-2C122.6,169,122.5,168.2,122.2,167.4z"/>
<path d="M119.9,15c-1.8-2.9-5.2-4.7-8.9-4.2c-5,0.6-8.6,5.2-7.9,10.2c0.6,5,5.2,8.6,10.2,7.9c3.3-0.4,5.9-2.5,7.2-5.3"/>
<path d="M135.1,37.1l-7.5-2.9c1.2-3,1-6.1-0.4-8.1c-1.6-2.3-4.7-2.6-7.1-2.6l-0.3-8.6c6.1-0.2,11,2.4,13.9,6.5
	C136.7,25.7,137.2,31.5,135.1,37.1z"/>
<g>
	<path d="M68.6,111.8c0.4,0.9,0.8,1.8,1.2,2.8c0.1,0.1,0.1,0.3,0.2,0.4c1.4,3,2.9,5.9,4.6,8.9c1.8,3.3,3.8,6.5,5.8,9.6
		c29.5-22.4,65.7-19.9,84.1-2.9c2.9-3.7,5.6-7.4,8-11.1c0.1-0.2,0.2-0.3,0.3-0.5c0.8-1.2,1.5-2.4,2.2-3.6c0.7-1.3,1.2-2.6,2-3.8
		c12.1-19.5-1.7-85.9-49.7-79.1c-2.5,0.4-5-0.3-7.4-0.2c-29.5,1.2-54.2,24.3-56.8,54.4C63,87.3,63,87.9,63,88.6c0,1.9,0.1,3.9,0.4,6
		 M139.5,106.8c-15.1,6.2-2.7-12.9-10.1-29.8c-5.5-12.6-30.7-22.9-14.4-29.6c15.1-6.2,32.3,0,40.1,13.9c0.6,1.1,1.2,2.4,1.7,3.6
		C163.7,81.3,155.9,100.1,139.5,106.8z"/>
	<path d="M164.5,130.5C162.1,133.6,167.2,127.6,164.5,130.5L164.5,130.5z"/>
</g>
<path d="M196.6,162.4c-5.2,4.1-18.1-3.8-28.8-17.6c-10.7-13.8-14.4-27.5-9.9-32.3c22.8-24.1,26.3-0.8,34.9,19.3
	C199.7,147.8,201.9,158.3,196.6,162.4z"/>
<ellipse transform="matrix(-0.3514 0.9362 -0.9362 -0.3514 197.1227 101.4699)" cx="63.4" cy="119" rx="32.7" ry="12.3"/>
<path d="M180.3,82.1"/>
</svg>
