<?xml version="1.0" encoding="utf-8"?>
<!-- Generator: Adobe Illustrator 16.0.0, SVG Export Plug-In . SVG Version: 6.00 Build 0)  -->
<!DOCTYPE svg PUBLIC "-//W3C//DTD SVG 1.1//EN" "http://www.w3.org/Graphics/SVG/1.1/DTD/svg11.dtd">
<svg version="1.1" id="Layer_1" xmlns="http://www.w3.org/2000/svg" xmlns:xlink="http://www.w3.org/1999/xlink" x="0px" y="0px"
	 width="240px" height="180px" viewBox="0 0 240 180" enable-background="new 0 0 240 180" xml:space="preserve">
<path d="M109.198,8.046c-1.812-3.125-5.289-5.112-9.128-4.786c-5.298,0.445-9.223,5.106-8.776,10.407
	c0.45,5.292,5.106,9.22,10.4,8.767c3.471-0.29,6.347-2.387,7.799-5.291"/>
<path d="M77.878,135.842c1.993,3.13,4.017,6.189,6.039,9.145c7.304-4.066,16.398-7.571,28.243-6.093
	c7.68,0.959,18.37,5.387,26.272,12.728c2.727-2.413,5.476-4.916,8.213-7.504c-7.775-7.317-18.853-14.193-33.027-15.963
	C99.323,126.368,87.338,130.477,77.878,135.842z"/>
<path d="M89.191,150.244c2.346,3.286,4.611,6.38,6.726,9.256c3.887-2.977,8.999-3.57,13.75-2.977
	c4.71,0.589,10.765,3.034,12.934,6.289c2.789-2.303,5.779-4.79,8.902-7.447c-4.561-3.911-11.033-8.538-20.469-9.715
	C101.705,144.485,94.661,147.519,89.191,150.244z"/>
<path d="M115.611,167.721c-0.091-0.332-0.218-0.648-0.354-0.961c-0.009-0.004-0.013-0.006-0.017-0.008
	c0.002-0.005,0.004-0.007,0.008-0.01c-1.01-2.327-3.204-4.099-5.96-4.441c-2.617-0.328-5.069,0.707-6.639,2.524
	c-0.235,0.273-0.445,0.564-0.638,0.868c-0.193,0.311-0.351,0.644-0.495,0.984c-0.258,0.6-0.466,1.23-0.552,1.91
	c-0.175,1.402,0.091,2.754,0.671,3.953c0.474,0.991,1.169,1.866,2.042,2.564c1.058,0.848,2.355,1.438,3.814,1.621
	c0.804,0.1,1.58,0.04,2.334-0.1c2.362-0.437,4.351-1.954,5.344-4.083c0.309-0.655,0.548-1.349,0.645-2.104
	C115.93,169.502,115.845,168.586,115.611,167.721z"/>
<path fill="#CC2929" d="M133.689,48.014c-13.517-1.688-25.824,7.899-27.51,21.406c-0.487,3.903-0.193,9.295,3.17,15.485
	c4.735-5.139,10.646-10.932,20.706-9.542c9.99,1.38,17.549,7.559,20.73,11.323c2.471-3.173,3.902-7.85,4.314-11.157
	C156.787,62.02,147.204,49.701,133.689,48.014z M135.112,60.482c-0.089,0.7-0.311,1.343-0.598,1.951
	c-0.921,1.974-2.766,3.382-4.957,3.788c-0.699,0.13-1.419,0.185-2.166,0.092c-1.353-0.17-2.556-0.717-3.537-1.503
	c-0.81-0.648-1.454-1.459-1.896-2.378c-0.537-1.112-0.783-2.366-0.622-3.667c0.08-0.631,0.273-1.216,0.512-1.772
	c0.135-0.316,0.28-0.625,0.46-0.912c0.179-0.282,0.373-0.553,0.593-0.806c1.455-1.686,3.729-2.646,6.157-2.341
	c2.558,0.318,4.592,1.96,5.529,4.119c-0.004,0.004-0.006,0.005-0.008,0.009c0.004,0.002,0.008,0.004,0.015,0.008
	c0.127,0.29,0.245,0.583,0.329,0.892C135.141,58.762,135.219,59.612,135.112,60.482z M147.419,66.338
	c-0.073,0.581-0.259,1.117-0.495,1.623c-0.768,1.641-2.302,2.812-4.124,3.149c-0.581,0.108-1.181,0.154-1.801,0.076
	c-1.125-0.141-2.126-0.596-2.942-1.25c-0.673-0.539-1.21-1.214-1.575-1.978c-0.446-0.925-0.652-1.967-0.518-3.05
	c0.066-0.524,0.227-1.011,0.425-1.474c0.112-0.263,0.233-0.52,0.384-0.759c0.147-0.234,0.31-0.459,0.491-0.67
	c1.211-1.403,3.103-2.201,5.122-1.947c2.125,0.264,3.817,1.63,4.597,3.425c-0.003,0.003-0.004,0.005-0.006,0.008
	c0.003,0.001,0.006,0.003,0.013,0.006c0.104,0.242,0.203,0.485,0.273,0.742C147.443,64.908,147.508,65.614,147.419,66.338z"/>
<path d="M124.247,31.873l-7.718-3.349c1.349-3.109,1.321-6.362-0.073-8.487c-1.617-2.466-4.865-2.983-7.306-2.983l0.048-9.007
	c6.378,0,11.422,3.003,14.291,7.375C126.466,19.957,126.749,26.106,124.247,31.873z"/>
<path d="M229.639,73.813c-1.477-5.97-15.486-8.103-37.165-3.895c-5.037,0.979-9.567,2.366-13.556,3.92
	c-5.812-24.702-26.413-44.412-53.029-47.737c-2.617-0.327-5.219-0.487-7.793-0.487c-31.041,0-58.022,23.178-61.968,54.757
	c-0.082,0.657-0.112,1.346-0.149,2.032c-0.113,1.994-0.037,4.096,0.196,6.276c-4.357,0.2-9.18,0.791-14.324,2.017
	c-21.01,5.008-32.625,12.565-31.53,18.479c1.097,5.915,17.869,10.826,32.252,6.606c5.691-1.67,12.294-5.074,18.323-8.728
	c0.372,0.983,0.754,1.969,1.158,2.955c0.058,0.136,0.112,0.273,0.17,0.41c1.315,3.181,2.809,6.369,4.414,9.541
	c1.767,3.495,3.677,6.965,5.686,10.385c9.209-5.312,20.401-8.955,33.203-8.955c2.795,0,5.67,0.173,8.615,0.542
	c16.304,2.037,28.996,9.266,38.204,18.075c2.946-2.991,5.812-6.054,8.51-9.174c3.227-3.731,6.22-7.533,8.848-11.366
	c0.116-0.166,0.227-0.33,0.338-0.499c0.843-1.244,1.653-2.489,2.415-3.737c0.808-1.329,1.549-2.644,2.249-3.954
	c2.882-5.377,4.841-10.586,5.445-15.421c0.118-0.944,0.188-1.883,0.245-2.82c7.515,0.963,15.641,1.446,21.997,0.547
	C217.57,91.439,231.115,79.784,229.639,73.813z M162.435,77.708c-2.129,17.055-16.706,29.573-33.47,29.573
	c-1.393,0-2.795-0.086-4.21-0.263c-18.466-2.306-31.609-19.206-29.305-37.673c2.128-17.054,16.704-29.571,33.465-29.573
	c1.389,0,2.791,0.086,4.204,0.263C151.592,42.339,164.741,59.241,162.435,77.708z"/>
</svg>
