<?xml version="1.0" encoding="utf-8"?>
<!-- Generator: Adobe Illustrator 18.0.0, SVG Export Plug-In . SVG Version: 6.00 Build 0)  -->
<!DOCTYPE svg PUBLIC "-//W3C//DTD SVG 1.1//EN" "http://www.w3.org/Graphics/SVG/1.1/DTD/svg11.dtd">
<svg version="1.1" id="Layer_1" xmlns="http://www.w3.org/2000/svg" xmlns:xlink="http://www.w3.org/1999/xlink" x="0px" y="0px"
	 width="240px" height="180px" viewBox="0 0 240 198" enable-background="new 0 0 240 198" xml:space="preserve">
<path fill="#CC2929" d="M117.4,83.8c11,6.8,25.5,3.4,32.3-7.6c6.8-11,3.4-25.4-7.6-32.3c-11-6.8-25.5-3.4-32.3,7.6
	C103,62.5,106.4,77,117.4,83.8z M136.3,56.7c1.9-1.7,4.8-1.5,6.4,0.4c1.7,1.9,1.5,4.8-0.4,6.4c-1.9,1.7-4.8,1.5-6.4-0.4
	C134.2,61.3,134.4,58.4,136.3,56.7z M126,47.2c2.4-2.1,6-1.9,8.2,0.5c2.1,2.4,1.9,6-0.5,8.2c-2.4,2.1-6,1.9-8.2-0.5
	C123.4,52.9,123.6,49.3,126,47.2z"/>
<path d="M132.1,116.4c-13.6,0.3-25.3,2.9-33.4,9c2.3,2.7,4.7,5.4,7,7.9c8.2-6.2,19.3-6.5,26.7-6.6c11.3-0.2,19.3,6.2,25.8,10.8
	c2.2-2.6,4.4-5.3,6.6-8C156.4,123.4,145.8,116.1,132.1,116.4z"/>
<path d="M132.5,135.4c-9,0.2-15.6,3.9-20.3,7.1c2.7,2.8,5.3,5.5,7.7,7.9c2.4-2.9,8.3-4.6,12.9-4.7c4.5-0.1,9.3,1,12.7,4.2
	c2.3-2.5,4.7-5.2,7.3-8.1C147.8,138.8,141.5,135.2,132.5,135.4z"/>
<path d="M125.5,158.3c0,0.7,0.2,1.4,0.4,2.1c0.7,2.1,2.5,3.7,4.6,4.4c0.7,0.2,1.4,0.3,2.2,0.3c1.4,0,2.7-0.5,3.8-1.2
	c0.9-0.6,1.6-1.3,2.2-2.2c0.7-1.1,1.1-2.3,1-3.7c0-0.7-0.1-1.3-0.3-1.9c-0.1-0.3-0.2-0.7-0.4-1c-0.2-0.3-0.3-0.6-0.5-0.9
	c-1.3-1.9-3.5-3.1-6-3.1c-2.6,0-4.9,1.5-6.1,3.6c0,0,0,0,0,0c0,0,0,0,0,0c-0.2,0.3-0.3,0.6-0.4,0.9
	C125.7,156.6,125.5,157.4,125.5,158.3z"/>
<g>
	<path d="M190.1,85.7c0.5-2.1,0.8-4.1,0.9-6.1c0-0.7,0.1-1.3,0.1-2C191,46.8,156.8,12,122.8,17.4C88.8,22.8,64,76.5,74.6,97
		c0.7,1.3,1.1,2.7,1.7,4c0.6,1.3,1.2,2.6,1.9,3.8c0.1,0.2,0.2,0.3,0.3,0.5c2.1,3.9,4.5,7.9,7.1,11.8c19.9-16.3,56.5-16.9,84.4,7.4
		c2.3-3.1,4.5-6.3,6.6-9.5c1.9-2.9,3.7-5.9,5.3-8.8c0.1-0.1,0.1-0.3,0.2-0.4c0.5-0.9,1-1.8,1.4-2.8 M147.8,35.5
		c1.2,0.7,2.3,1.5,3.3,2.3c12.5,9.9,15.8,28.2,7.1,42.6C148.8,96,142.8,69,131.1,61.7c-15.6-9.8-36.6,0-27.9-14.4
		C112.6,31.7,132.6,26.4,147.8,35.5z"/>
	<path d="M86.1,116.3C83.7,113.1,88.4,119.5,86.1,116.3L86.1,116.3z"/>
</g>
<path d="M57.8,115.7c9.8-19.5,14.8-42.5,36.1-17c4.2,5.1-0.4,18.5-11.9,31.6C70.4,143.3,57,150.4,52,146
	C47.1,141.6,49.9,131.2,57.8,115.7z"/>
<ellipse transform="matrix(-0.957 0.2899 -0.2899 -0.957 399.8187 163.46)" cx="187.8" cy="111.3" rx="12.3" ry="32.7"/>
<path d="M67,57"/>
<path d="M163.4,18c-4.9,1.9-11.2,4.3-14.3,5.4l2.9,8.1c3.2-1.2,9.6-3.6,14.5-5.5c2.4,2,5.7,2.7,8.8,1.7c4.8-1.6,7.4-6.8,5.8-11.6
	c-1.6-4.8-6.8-7.4-11.6-5.8C166.1,11.5,163.8,14.6,163.4,18z"/>
</svg>
