<?xml version="1.0" encoding="utf-8"?>
<!-- Generator: Adobe Illustrator 16.0.4, SVG Export Plug-In . SVG Version: 6.00 Build 0)  -->
<!DOCTYPE svg PUBLIC "-//W3C//DTD SVG 1.1//EN" "http://www.w3.org/Graphics/SVG/1.1/DTD/svg11.dtd">
<svg version="1.1" id="Layer_1" xmlns="http://www.w3.org/2000/svg" xmlns:xlink="http://www.w3.org/1999/xlink" x="0px" y="0px"
	 width="300px" height="300px" viewBox="0 0 300 300" enable-background="new 0 0 300 300" xml:space="preserve">
<g>
	<g>
		<path fill="#4D4D4D" d="M173.45,60.288H69.399c-17.151,0-31.052,13.914-31.052,31.076v113.221
			c0,17.152,13.901,31.063,31.052,31.063H173.45c17.165,0,31.063-13.911,31.063-31.063V91.364
			C204.514,74.202,190.615,60.288,173.45,60.288z M70.961,218.557c-7.726,0-13.982-6.246-13.982-13.972
			c0-7.713,6.257-13.97,13.982-13.97c7.712,0,13.969,6.257,13.969,13.97C84.931,212.311,78.674,218.557,70.961,218.557z
			 M170.351,218.557c-7.725,0-13.981-6.246-13.981-13.972c0-7.713,6.257-13.97,13.981-13.97c7.713,0,13.982,6.257,13.982,13.97
			C184.333,212.311,178.063,218.557,170.351,218.557z M190.532,143.865c0,8.584-6.951,15.544-15.51,15.544H67.849
			c-8.568,0-15.532-6.96-15.532-15.544v-34.163c0-8.569,6.963-15.532,15.532-15.532h107.173c8.559,0,15.51,6.963,15.51,15.532
			V143.865z"/>
		<path fill="#4D4D4D" d="M145.509,40.108c0-5.154-4.178-9.322-9.334-9.322c-5.129,0-9.308,4.168-9.308,9.322
			c0,5.142,4.179,9.321,9.308,9.321C141.331,49.429,145.509,45.25,145.509,40.108z"/>
		<path fill="#4D4D4D" d="M117.557,40.108c0-5.154-4.19-9.322-9.333-9.322c-5.13,0-9.321,4.168-9.321,9.322
			c0,5.142,4.19,9.321,9.321,9.321C113.366,49.429,117.557,45.25,117.557,40.108z"/>
		<path fill="#4D4D4D" d="M38.112,269.214H66.71l33.682-38.285l-21.601-12.304L38.112,269.214z M166.583,218.99l-21.979,11.586
			l31.312,38.638h28.093L166.583,218.99z"/>
	</g>
	<g>
		<path fill="#CC2929" d="M215.323,44.854c-0.487-0.061-0.98-0.092-1.467-0.092c-5.902,0-10.906,4.423-11.637,10.289
			c-0.803,6.425,3.77,12.304,10.194,13.105c0.485,0.062,0.979,0.092,1.466,0.092c5.904,0,10.911-4.423,11.643-10.289
			c0.387-3.105-0.461-6.18-2.39-8.66C221.202,46.821,218.431,45.242,215.323,44.854z"/>
		<g>
			<path fill="#CC2929" d="M212.914,67.656c6.438,0.804,12.306-3.763,13.108-10.197c0.804-6.434-3.762-12.302-10.199-13.106
				c-6.438-0.805-12.301,3.762-13.104,10.196S206.475,66.853,212.914,67.656z"/>
		</g>
		<path fill="#CC2929" d="M211.233,25.252c-0.406-2.5-2.764-4.193-5.264-3.786c-2.497,0.408-4.191,2.763-3.782,5.262
			c0.265,1.636,1.366,2.926,2.798,3.509c0.312,2.641,0.721,6.055,0.955,7.734l4.293-0.598c-0.226-1.618-0.629-4.988-0.938-7.61
			C210.714,28.789,211.529,27.064,211.233,25.252z"/>
		<g>
			<path fill="#CC2929" d="M189.167,86.188c0.949,1.491,1.913,2.948,2.877,4.356c3.48-1.938,7.811-3.607,13.453-2.903
				c3.658,0.458,8.75,2.566,12.514,6.062c1.298-1.149,2.609-2.341,3.911-3.574c-3.702-3.486-8.979-6.761-15.731-7.604
				C199.382,81.675,193.673,83.632,189.167,86.188z"/>
		</g>
		<g>
			<path fill="#CC2929" d="M194.556,93.048c1.117,1.566,2.195,3.04,3.203,4.409c1.852-1.418,4.286-1.701,6.549-1.418
				c2.244,0.28,5.129,1.445,6.16,2.996c1.328-1.097,2.754-2.281,4.24-3.547c-2.172-1.862-5.254-4.066-9.75-4.627
				C200.517,90.305,197.161,91.75,194.556,93.048z"/>
		</g>
		<g>
			<path fill="#CC2929" d="M207.14,101.374c-0.043-0.159-0.104-0.31-0.168-0.458c-0.004-0.002-0.006-0.002-0.008-0.004
				c0.002-0.001,0.002-0.002,0.004-0.004c-0.481-1.108-1.526-1.952-2.84-2.116c-1.245-0.156-2.414,0.337-3.162,1.204
				c-0.111,0.13-0.212,0.269-0.305,0.414c-0.092,0.147-0.166,0.306-0.236,0.468c-0.122,0.285-0.221,0.585-0.262,0.91
				c-0.084,0.668,0.043,1.312,0.318,1.883c0.227,0.473,0.558,0.89,0.974,1.222c0.503,0.404,1.122,0.685,1.816,0.771
				c0.382,0.048,0.753,0.02,1.112-0.047c1.125-0.208,2.072-0.931,2.545-1.945c0.146-0.312,0.262-0.643,0.307-1.002
				C207.292,102.221,207.251,101.785,207.14,101.374z"/>
		</g>
		<path fill="#CC2929" d="M261.835,56.643c-0.703-2.844-7.376-3.86-17.703-1.855c-2.398,0.466-4.557,1.127-6.456,1.867
			c-2.77-11.766-12.581-21.155-25.26-22.738c-1.246-0.156-2.485-0.231-3.712-0.231c-14.786,0-27.639,11.04-29.518,26.082
			c-0.039,0.313-0.053,0.641-0.07,0.968c-0.054,0.95-0.018,1.951,0.094,2.99c-2.076,0.094-4.373,0.376-6.824,0.959
			c-10.008,2.386-15.539,5.986-15.018,8.803c0.523,2.817,8.512,5.157,15.361,3.146c2.713-0.795,5.857-2.417,8.729-4.157
			c0.177,0.468,0.359,0.938,0.551,1.408c0.028,0.064,0.054,0.129,0.082,0.194c0.627,1.515,1.337,3.034,2.102,4.546
			c0.842,1.664,1.752,3.317,2.709,4.945c4.385-2.53,9.717-4.265,15.815-4.265c1.331,0,2.7,0.083,4.104,0.258
			c7.767,0.97,13.812,4.413,18.197,8.609c1.403-1.425,2.769-2.884,4.054-4.37c1.537-1.777,2.962-3.588,4.215-5.414
			c0.055-0.08,0.107-0.158,0.16-0.238c0.402-0.592,0.788-1.185,1.15-1.78c0.385-0.632,0.736-1.259,1.07-1.883
			c1.374-2.561,2.308-5.043,2.594-7.345c0.057-0.45,0.09-0.897,0.117-1.343c3.58,0.458,7.45,0.689,10.479,0.261
			C256.085,65.039,262.538,59.487,261.835,56.643z M229.823,58.498c-1.014,8.123-7.957,14.086-15.941,14.086
			c-0.664,0-1.332-0.041-2.006-0.125c-8.795-1.099-15.057-9.148-13.958-17.945c1.014-8.123,7.956-14.085,15.94-14.086
			c0.66,0,1.328,0.041,2.003,0.125C224.659,41.651,230.923,49.702,229.823,58.498z"/>
	</g>
</g>
</svg>
